<svg version="1.1" xmlns="http://www.w3.org/2000/svg" viewBox="0 0 634.9205280895869 605.2012985967153" width="634.9205280895869" height="605.2012985967153" filter="invert(93%) hue-rotate(180deg)">
  <!-- svg-source:excalidraw -->
  
  <defs>
    <style class="style-fonts">
      @font-face {
        font-family: "Virgil";
        src: url("https://excalidraw.com/Virgil.woff2");
      }
      @font-face {
        font-family: "Cascadia";
        src: url("https://excalidraw.com/Cascadia.woff2");
      }
    </style>
    
  </defs>
  <rect x="0" y="0" width="634.9205280895869" height="605.2012985967153" fill="#ffffff"></rect><g stroke-linecap="round" transform="translate(43.07533116473121 10) rotate(0 168.6453527433925 93.28507508166781)"><path d="M0 0 C68.45 -2.4, 138.49 -0.92, 337.29 0 M0 0 C68.41 -0.59, 135.26 -1.32, 337.29 0 M337.29 0 C334.83 45.6, 336.32 89.94, 337.29 186.57 M337.29 0 C335.86 67.22, 336.37 135.92, 337.29 186.57 M337.29 186.57 C214.29 183.85, 94.46 184.21, 0 186.57 M337.29 186.57 C224.07 185.02, 109.31 186.01, 0 186.57 M0 186.57 C1.45 143.41, 2 101.79, 0 0 M0 186.57 C-0.16 114.57, -0.64 41.79, 0 0" stroke="#000000" stroke-width="1" fill="none"></path></g><g transform="translate(165.40401825870958 93.28486562793253) rotate(0 46.31666564941406 10.00020945373528)"><text x="46.31666564941406" y="0" font-family="Virgil, Segoe UI Emoji" font-size="16.00033512597644px" fill="#1e1e1e" text-anchor="middle" style="white-space: pre;" direction="ltr" dominant-baseline="text-before-edge">+ getArea()</text></g><g stroke-linecap="round"><g transform="translate(44.62080967103907 84.09499539332924) rotate(0 165.83716423772643 0.56160112584611)"><path d="M-0.04 0.02 C55.22 0.21, 276.45 0.9, 331.71 1.11 M0.21 -0.11 C55.45 0.11, 276.46 1.03, 331.66 1.23" stroke="#000000" stroke-width="1" fill="none"></path></g></g><mask></mask><g transform="translate(128.12787124633144 18.707412980918605) rotate(0 82.33629583392644 31.216570993954832)"><text x="0" y="0" font-family="Virgil, Segoe UI Emoji" font-size="24.973256795163866px" fill="#1e1e1e" text-anchor="start" style="white-space: pre;" direction="ltr" dominant-baseline="text-before-edge">&lt;&lt;interface&gt;&gt;</text><text x="0" y="31.216570993954832" font-family="Virgil, Segoe UI Emoji" font-size="24.973256795163866px" fill="#1e1e1e" text-anchor="start" style="white-space: pre;" direction="ltr" dominant-baseline="text-before-edge">  Shape&lt;T&gt;</text></g><g stroke-linecap="round" transform="translate(10 442.3503488596971) rotate(0 138.16573719319308 76.42547486850913)"><path d="M0 0 C96.39 -0.15, 190.17 0.65, 276.33 0 M0 0 C89.94 0.92, 180.21 2.21, 276.33 0 M276.33 0 C277.19 57.87, 276.43 115.7, 276.33 152.85 M276.33 0 C275.41 31.97, 274.26 66.55, 276.33 152.85 M276.33 152.85 C168.36 150.28, 59.82 152.57, 0 152.85 M276.33 152.85 C213.77 153.53, 150.86 152.24, 0 152.85 M0 152.85 C-3.14 113.29, 0.25 74.78, 0 0 M0 152.85 C1.01 103.37, -0.08 54.42, 0 0" stroke="#000000" stroke-width="1" fill="none"></path></g><g transform="translate(49.31573871907199 481.2758237282062) rotate(0 98.8499984741211 37.5)"><text x="98.8499984741211" y="0" font-family="Virgil, Segoe UI Emoji" font-size="20px" fill="#1e1e1e" text-anchor="middle" style="white-space: pre;" direction="ltr" dominant-baseline="text-before-edge">- width</text><text x="98.8499984741211" y="25" font-family="Virgil, Segoe UI Emoji" font-size="20px" fill="#1e1e1e" text-anchor="middle" style="white-space: pre;" direction="ltr" dominant-baseline="text-before-edge">- height</text><text x="98.8499984741211" y="50" font-family="Virgil, Segoe UI Emoji" font-size="20px" fill="#1e1e1e" text-anchor="middle" style="white-space: pre;" direction="ltr" dominant-baseline="text-before-edge">+ ...getters/setters</text></g><g stroke-linecap="round"><g transform="translate(14.98637715465668 482.2370037391546) rotate(0 137.78449981878975 -0.9194121110926403)"><path d="M-0.06 0.04 C45.9 -0.26, 229.69 -1.55, 275.63 -1.88 M0.18 -0.07 C46.14 -0.34, 229.65 -1.46, 275.54 -1.74" stroke="#000000" stroke-width="1" fill="none"></path></g></g><mask></mask><g stroke-linecap="round"><g transform="translate(77.75559253598351 333.4069465423065) rotate(268.8818947441665 105.62365102126529 0.6915554529384735)"><path d="M0.11 -0.09 C35.32 0.13, 176.07 1.24, 211.27 1.47 M-0.02 0.19 C35.17 0.43, 175.95 1.06, 211.15 1.27" stroke="#000000" stroke-width="1" fill="none"></path></g></g><mask></mask><g stroke-linecap="round"><g transform="translate(183.11167116763295 215.9071499257906) rotate(268.8818947441665 -0.4766244487567519 10.79625777729504)"><path d="M0 0.12 C-0.16 3.7, -0.68 17.81, -0.84 21.38 M-0.18 0.05 C-0.36 3.66, -0.88 18, -0.95 21.54" stroke="#000000" stroke-width="1" fill="none"></path></g></g><mask></mask><g stroke-linecap="round"><g transform="translate(164.94592394928793 210.8543156996469) rotate(268.8818947441665 10.89329663505498 5.7023760511925445)"><path d="M0 -0.06 C3.61 1.86, 18.05 9.74, 21.66 11.65 M-0.22 -0.24 C3.45 1.61, 18.38 9.43, 22 11.39" stroke="#000000" stroke-width="1" fill="none"></path></g></g><mask></mask><g stroke-linecap="round"><g transform="translate(197.0101284723147 209.59075689076562) rotate(268.8818947441665 -10.15403264091367 5.397660009168391)"><path d="M-0.11 0.1 C-3.52 1.88, -17.09 8.88, -20.46 10.64 M0.15 0 C-3.2 1.81, -16.69 8.99, -20.11 10.8" stroke="#000000" stroke-width="1" fill="none"></path></g></g><mask></mask><g transform="translate(89.96338818665185 450.526427026427) rotate(0 54.474998474121094 14.337086448653338)"><text x="0" y="0" font-family="Virgil, Segoe UI Emoji" font-size="22.939338317845362px" fill="#1e1e1e" text-anchor="start" style="white-space: pre;" direction="ltr" dominant-baseline="text-before-edge">Rectangle</text></g><g stroke-linecap="round" transform="translate(345.1240340229865 439.83138408278546) rotate(0 138.16573719319308 76.42547486850913)"><path d="M0 0 C73.1 -0.36, 146.46 -2.3, 276.33 0 M0 0 C98.75 0.51, 197.05 0.88, 276.33 0 M276.33 0 C275.78 48.44, 275.76 97.81, 276.33 152.85 M276.33 0 C277.81 41.51, 276.94 81.87, 276.33 152.85 M276.33 152.85 C214.32 151.91, 155.34 151.16, 0 152.85 M276.33 152.85 C201.22 152.18, 125.61 152.37, 0 152.85 M0 152.85 C0.43 122.07, 1.36 88.12, 0 0 M0 152.85 C0.13 104.3, -0.43 54.46, 0 0" stroke="#000000" stroke-width="1" fill="none"></path></g><g transform="translate(384.4397727420585 491.2568589512946) rotate(0 98.8499984741211 25)"><text x="98.8499984741211" y="0" font-family="Virgil, Segoe UI Emoji" font-size="20px" fill="#1e1e1e" text-anchor="middle" style="white-space: pre;" direction="ltr" dominant-baseline="text-before-edge">- size</text><text x="98.8499984741211" y="25" font-family="Virgil, Segoe UI Emoji" font-size="20px" fill="#1e1e1e" text-anchor="middle" style="white-space: pre;" direction="ltr" dominant-baseline="text-before-edge">+ ...getters/setters</text></g><g stroke-linecap="round"><g transform="translate(349.2753226701052 480.553127469781) rotate(0 137.79897274038603 -0.8571532750798951)"><path d="M-0.05 0.09 C45.87 -0.19, 229.7 -1.49, 275.65 -1.8 M0.2 0 C46.09 -0.25, 229.67 -1.36, 275.56 -1.63" stroke="#000000" stroke-width="1" fill="none"></path></g></g><mask></mask><g transform="translate(441.8139486253117 448.47410802019726) rotate(0 38.70000076293945 14.337086448653338)"><text x="0" y="0" font-family="Virgil, Segoe UI Emoji" font-size="22.939338317845362px" fill="#1e1e1e" text-anchor="start" style="white-space: pre;" direction="ltr" dominant-baseline="text-before-edge">Square</text></g><g stroke-linecap="round"><g transform="translate(324.2313468182663 319.73485359651943) rotate(232.41164590751168 119.98974574911176 5.819813259835939)"><path d="M-0.04 0.1 C39.97 2.03, 200.03 9.76, 240.02 11.64 M0.26 0 C40.24 1.87, 199.97 9.46, 239.88 11.38" stroke="#000000" stroke-width="1" fill="none"></path></g></g><mask></mask><g stroke-linecap="round"><g transform="translate(374.0781849866182 213.47676575992662) rotate(232.41164590751168 -0.5130490902108704 12.146744174330138)"><path d="M0.01 0.07 C-0.16 4.09, -0.88 20.17, -1.03 24.19 M-0.17 -0.02 C-0.28 4.01, -0.61 20.26, -0.74 24.31" stroke="#000000" stroke-width="1" fill="none"></path></g></g><mask></mask><g stroke-linecap="round"><g transform="translate(348.1801558575994 214.59108960958795) rotate(232.41164590751168 12.347455273105084 6.466560707439754)"><path d="M-0.1 -0.17 C4.03 1.97, 20.65 10.75, 24.8 12.95 M0.17 0.14 C4.29 2.29, 20.61 10.93, 24.69 13.1" stroke="#000000" stroke-width="1" fill="none"></path></g></g><mask></mask><g stroke-linecap="round"><g transform="translate(381.0690984563239 206.079130648806) rotate(232.41164590751168 -11.563342620968115 6.090510914220459)"><path d="M0.07 -0.16 C-3.76 1.9, -19.22 10.11, -23.09 12.15 M-0.1 0.15 C-3.94 2.24, -19.34 10.33, -23.2 12.34" stroke="#000000" stroke-width="1" fill="none"></path></g></g><mask></mask></svg>