<svg version="1.1" xmlns="http://www.w3.org/2000/svg" viewBox="0 0 909.5267211794203 567.4410280760353" width="909.5267211794203" height="567.4410280760353" filter="invert(93%) hue-rotate(180deg)">
  <!-- svg-source:excalidraw -->
  
  <defs>
    <style class="style-fonts">
      @font-face {
        font-family: "Virgil";
        src: url("https://excalidraw.com/Virgil.woff2");
      }
      @font-face {
        font-family: "Cascadia";
        src: url("https://excalidraw.com/Cascadia.woff2");
      }
    </style>
    
  </defs>
  <rect x="0" y="0" width="909.5267211794203" height="567.4410280760353" fill="#ffffff"></rect><g stroke-linecap="round" transform="translate(10 10) rotate(0 176.03005299186725 97.36987377862786)"><path d="M0 0 C71.51 -2.4, 144.54 -0.98, 352.06 0 M0 0 C71.36 -0.6, 141.21 -1.31, 352.06 0 M352.06 0 C349.52 47.56, 351.02 93.84, 352.06 194.74 M352.06 0 C350.6 70.2, 351.11 141.88, 352.06 194.74 M352.06 194.74 C223.78 192.04, 98.56 192.38, 0 194.74 M352.06 194.74 C233.84 193.19, 114.13 194.15, 0 194.74 M0 194.74 C1.47 149.76, 2.02 106.31, 0 0 M0 194.74 C-0.2 119.59, -0.68 43.65, 0 0" stroke="#000000" stroke-width="1" fill="none"></path></g><g transform="translate(93.95505604362506 96.93177174121632) rotate(0 92.07499694824219 10.43810203741154)"><text x="92.07499694824219" y="0" font-family="Virgil, Segoe UI Emoji" font-size="16.70096325985846px" fill="#1e1e1e" text-anchor="middle" style="white-space: pre;" direction="ltr" dominant-baseline="text-before-edge">+ TypeT(...attributes)</text></g><g stroke-linecap="round"><g transform="translate(12.325971686831508 60.252361199272116) rotate(0 175.59253831287992 -1.1906408302636748)"><path d="M-0.04 0.02 C58.47 -0.37, 292.71 -2.03, 351.23 -2.4 M0.21 -0.11 C58.71 -0.47, 292.72 -1.89, 351.17 -2.28" stroke="#000000" stroke-width="1" fill="none"></path></g></g><mask></mask><g transform="translate(157.04838689948497 22.652792353362003) rotate(0 40.516666412353516 16.291746427935735)"><text x="0" y="0" font-family="Virgil, Segoe UI Emoji" font-size="26.06679428469719px" fill="#1e1e1e" text-anchor="start" style="white-space: pre;" direction="ltr" dominant-baseline="text-before-edge">TypeT</text></g><g stroke-linecap="round" transform="translate(32.04051033278893 404.590078339017) rotate(0 138.16573719319308 76.42547486850913)"><path d="M0 0 C96.39 -0.15, 190.17 0.65, 276.33 0 M0 0 C89.94 0.92, 180.21 2.21, 276.33 0 M276.33 0 C277.19 57.87, 276.43 115.7, 276.33 152.85 M276.33 0 C275.41 31.97, 274.26 66.55, 276.33 152.85 M276.33 152.85 C168.36 150.28, 59.82 152.57, 0 152.85 M276.33 152.85 C213.77 153.53, 150.86 152.24, 0 152.85 M0 152.85 C-3.14 113.29, 0.25 74.78, 0 0 M0 152.85 C1.01 103.37, -0.08 54.42, 0 0" stroke="#000000" stroke-width="1" fill="none"></path></g><g transform="translate(62.20624752598201 468.5155532075261) rotate(0 108 12.5)"><text x="108" y="0" font-family="Virgil, Segoe UI Emoji" font-size="20px" fill="#1e1e1e" text-anchor="middle" style="white-space: pre;" direction="ltr" dominant-baseline="text-before-edge">+ TypeS(...attributes)</text></g><g stroke-linecap="round"><g transform="translate(34.52162196483107 445.31182172601274) rotate(0 137.78449981878975 -0.9194121110926403)"><path d="M-0.06 0.04 C45.9 -0.26, 229.69 -1.55, 275.63 -1.88 M0.18 -0.07 C46.14 -0.34, 229.65 -1.46, 275.54 -1.74" stroke="#000000" stroke-width="1" fill="none"></path></g></g><mask></mask><g transform="translate(148.11403897762068 415.7999738372809) rotate(0 29.941667556762695 12.787368503969674)"><text x="0" y="0" font-family="Virgil, Segoe UI Emoji" font-size="20.459789606351446px" fill="#1e1e1e" text-anchor="start" style="white-space: pre;" direction="ltr" dominant-baseline="text-before-edge">TypeS</text></g><g stroke-linecap="round"><g transform="translate(96.01944508467943 311.14721808040036) rotate(269.58076176921816 81.08933036930608 0.06878381513658383)"><path d="M0.02 0.15 C27.05 0.17, 135.02 0.2, 162.05 0.15 M-0.14 0.09 C26.93 0.08, 135.27 -0.02, 162.32 -0.04" stroke="#000000" stroke-width="1" fill="none"></path></g></g><mask></mask><g stroke-linecap="round"><g transform="translate(176.80238616532142 220.14244690034707) rotate(269.58076176921816 -0.3969609397154841 10.861718825686381)"><path d="M-0.12 0.14 C-0.25 3.7, -0.69 17.95, -0.8 21.53 M0.1 0.08 C-0.06 3.71, -0.74 18.04, -0.89 21.65" stroke="#000000" stroke-width="1" fill="none"></path></g></g><mask></mask><g stroke-linecap="round"><g transform="translate(158.70719521240278 214.93924093237774) rotate(269.58076176921816 11.005644737908085 5.816694076444378)"><path d="M0.06 -0.17 C3.77 1.74, 18.45 9.62, 22.14 11.61 M-0.13 0.13 C3.58 2.14, 18.35 9.91, 22.06 11.8" stroke="#000000" stroke-width="1" fill="none"></path></g></g><mask></mask><g stroke-linecap="round"><g transform="translate(190.9734481915525 213.8273428976205) rotate(269.58076176921816 -10.184786341657002 5.376145520447949)"><path d="M0.12 -0.07 C-3.3 1.79, -16.96 9.15, -20.44 11 M-0.03 -0.25 C-3.46 1.58, -17.09 8.91, -20.49 10.75" stroke="#000000" stroke-width="1" fill="none"></path></g></g><mask></mask><g stroke-linecap="round" transform="translate(627.5236293935991 206.47560938424607) rotate(0 135.06076049804688 74.70797729492188)"><path d="M0 0 C102.5 1.87, 207.94 0.41, 270.12 0 M0 0 C75.53 0.57, 151.84 0.68, 270.12 0 M270.12 0 C271.78 32.35, 271.24 62.84, 270.12 149.42 M270.12 0 C271.71 40.06, 271.6 79.09, 270.12 149.42 M270.12 149.42 C207.38 147.34, 147.06 146.19, 0 149.42 M270.12 149.42 C166.94 148.58, 65.73 148.33, 0 149.42 M0 149.42 C0.04 119, 2.1 86.4, 0 0 M0 149.42 C-0.25 93.13, -1.04 34.54, 0 0" stroke="#000000" stroke-width="1" fill="none"></path></g><g transform="translate(649.1010601186968 256.18358667916795) rotate(0 113.48332977294922 25)"><text x="113.48332977294922" y="0" font-family="Virgil, Segoe UI Emoji" font-size="20px" fill="#1e1e1e" text-anchor="middle" style="white-space: pre;" direction="ltr" dominant-baseline="text-before-edge">+ TypeP(TypeT typeT)</text><text x="113.48332977294922" y="25" font-family="Virgil, Segoe UI Emoji" font-size="20px" fill="#1e1e1e" text-anchor="middle" style="white-space: pre;" direction="ltr" dominant-baseline="text-before-edge">+ doSomething()</text></g><g stroke-linecap="round"><g transform="translate(629.9489833975053 245.03221949166795) rotate(0 134.7329816201633 -0.8455331055086504)"><path d="M0.05 0.06 C44.94 -0.21, 224.38 -1.45, 269.29 -1.75 M-0.11 -0.04 C44.84 -0.28, 224.64 -1.32, 269.58 -1.58" stroke="#000000" stroke-width="1" fill="none"></path></g></g><mask></mask><g transform="translate(742.2413542610482 219.308586679168) rotate(0 29.741666793823242 12.5)"><text x="0" y="0" font-family="Virgil, Segoe UI Emoji" font-size="20px" fill="#1e1e1e" text-anchor="start" style="white-space: pre;" direction="ltr" dominant-baseline="text-before-edge">TypeP</text></g><g stroke-linecap="round"><g transform="translate(364.440854300356 151.8520984284159) rotate(212.92971483711892 129.37078688270742 0.7811677413167786)"><path d="M-0.05 0.08 C43.06 0.34, 215.64 1.17, 258.79 1.43 M0.19 0 C43.29 0.27, 215.6 1.33, 258.71 1.57" stroke="#000000" stroke-width="1" fill="none"></path></g><g transform="translate(364.440854300356 151.8520984284159) rotate(212.92971483711892 129.37078688270742 0.7811677413167786)"><path d="M230.46 11.66 C240.96 8.11, 250.93 4.53, 258.71 1.57 M230.46 11.66 C241.32 7.88, 252 4.07, 258.71 1.57" stroke="#000000" stroke-width="1" fill="none"></path></g><g transform="translate(364.440854300356 151.8520984284159) rotate(212.92971483711892 129.37078688270742 0.7811677413167786)"><path d="M230.58 -8.86 C241.01 -4.91, 250.94 -0.99, 258.71 1.57 M230.58 -8.86 C241.4 -4.85, 252.04 -0.88, 258.71 1.57" stroke="#000000" stroke-width="1" fill="none"></path></g></g><mask></mask><g stroke-linecap="round"><g transform="translate(407.1085898041165 85.62079596024671) rotate(212.92971483711892 -0.3254806955068261 9.620329872159033)"><path d="M0.06 -0.1 C-0.04 3.11, -0.53 16.13, -0.66 19.34 M-0.08 0.17 C-0.19 3.33, -0.59 15.95, -0.71 19.14" stroke="#000000" stroke-width="1" fill="none"></path></g></g><mask></mask><g transform="translate(390.46459604753113 93.78863752964855) rotate(212.92971483711892 6.39111328125 -5.214202880859375)" stroke="none"><path fill="#000000" d="M -0.86,-2.41 Q -0.86,-2.41 0.04,-2.78 0.95,-3.14 2.21,-3.66 3.47,-4.18 4.78,-4.65 6.09,-5.12 6.96,-5.76 7.83,-6.39 7.63,-4.66 7.42,-2.94 6.30,-2.98 5.17,-3.03 4.11,-3.45 3.05,-3.87 1.99,-4.26 0.93,-4.65 0.04,-5.25 -0.84,-5.86 -1.49,-6.72 -2.14,-7.59 -2.73,-8.39 -3.32,-9.19 -3.44,-9.62 -3.55,-10.05 -3.56,-10.50 -3.57,-10.94 -3.47,-11.37 -3.37,-11.80 -3.17,-12.20 -2.97,-12.60 -2.69,-12.94 -2.40,-13.27 -2.04,-13.53 -1.68,-13.79 -1.26,-13.96 -0.85,-14.12 -0.41,-14.18 0.02,-14.24 0.46,-14.20 0.90,-14.15 1.32,-14.00 1.74,-13.85 2.11,-13.61 2.48,-13.36 2.78,-13.04 3.08,-12.71 3.29,-12.32 3.50,-11.93 3.70,-10.78 3.90,-9.63 4.17,-8.57 4.45,-7.52 4.68,-6.41 4.92,-5.30 5.05,-4.21 5.17,-3.13 3.87,-4.07 2.57,-5.00 3.60,-5.44 4.62,-5.88 5.75,-6.08 6.87,-6.28 7.94,-6.37 9.00,-6.47 10.18,-6.61 11.36,-6.74 11.83,-6.79 12.29,-6.84 12.75,-6.92 13.21,-7.01 13.68,-6.98 14.14,-6.95 14.59,-6.81 15.03,-6.67 15.43,-6.43 15.83,-6.19 16.16,-5.86 16.49,-5.53 16.73,-5.13 16.97,-4.73 17.11,-4.29 17.25,-3.84 17.28,-3.38 17.31,-2.91 17.22,-2.45 17.14,-2.00 16.95,-1.57 16.75,-1.14 16.47,-0.78 16.18,-0.41 15.81,-0.12 15.45,0.15 15.02,0.35 14.60,0.54 13.43,-3.17 12.26,-6.88 12.72,-6.97 13.18,-7.05 13.64,-7.02 14.11,-7.00 14.55,-6.86 15.00,-6.72 15.40,-6.48 15.80,-6.24 16.13,-5.91 16.46,-5.58 16.70,-5.18 16.94,-4.78 17.08,-4.33 17.22,-3.89 17.24,-3.42 17.27,-2.96 17.19,-2.50 17.10,-2.04 16.91,-1.62 16.72,-1.19 16.43,-0.82 16.15,-0.46 15.78,-0.17 15.41,0.11 14.99,0.30 14.56,0.49 13.42,-3.18 12.28,-6.87 12.74,-6.95 13.20,-7.03 13.67,-7.01 14.13,-6.98 14.58,-6.84 15.02,-6.70 15.42,-6.46 15.82,-6.22 16.15,-5.89 16.48,-5.56 16.72,-5.16 16.96,-4.76 17.10,-4.32 17.24,-3.87 17.27,-3.40 17.29,-2.94 17.21,-2.48 17.13,-2.02 16.93,-1.60 16.74,-1.17 16.46,-0.81 16.17,-0.44 15.80,-0.15 15.43,0.13 15.01,0.32 14.58,0.51 13.38,0.50 12.18,0.49 10.65,0.42 9.11,0.35 7.61,0.34 6.12,0.34 4.80,0.39 3.49,0.45 3.27,0.27 3.05,0.09 2.99,0.55 2.94,1.00 2.77,1.43 2.61,1.85 2.34,2.23 2.08,2.60 1.74,2.90 1.40,3.20 0.99,3.42 0.58,3.63 0.14,3.73 -0.30,3.84 -0.75,3.84 -1.21,3.84 -1.65,3.72 -2.10,3.61 -2.50,3.40 -2.90,3.18 -3.24,2.88 -3.59,2.57 -3.84,2.19 -4.10,1.82 -4.26,1.39 -4.42,0.96 -4.47,0.51 -4.53,0.05 -3.96,-1.30 -3.40,-2.66 -3.07,-3.76 -2.73,-4.86 -2.66,-5.32 -2.60,-5.77 -2.42,-6.20 -2.25,-6.62 -1.98,-6.99 -1.70,-7.36 -1.35,-7.66 -1.00,-7.95 -0.59,-8.15 -0.17,-8.36 0.26,-8.45 0.71,-8.55 1.17,-8.54 1.63,-8.52 2.07,-8.40 2.52,-8.28 2.92,-8.06 3.32,-7.83 3.65,-7.52 3.99,-7.20 4.24,-6.82 4.49,-6.43 4.64,-6.00 4.79,-5.56 4.83,-5.11 4.88,-4.65 4.43,-3.45 3.98,-2.25 3.67,-1.02 3.35,0.20 3.16,0.73 2.97,1.26 2.74,1.66 2.51,2.06 2.19,2.39 1.86,2.72 1.47,2.97 1.08,3.22 0.64,3.37 0.20,3.51 -0.25,3.55 -0.71,3.59 -1.17,3.51 -1.62,3.44 -2.05,3.26 -2.48,3.07 -2.85,2.80 -3.22,2.52 -3.51,2.16 -3.80,1.80 -4.00,1.38 -4.20,0.96 -4.29,0.51 -4.38,0.06 -4.36,-0.40 -4.34,-0.86 -4.22,-1.30 -4.09,-1.75 -4.04,-0.16 -4.00,1.42 -4.22,0.29 -4.44,-0.83 -4.45,-1.94 -4.46,-3.05 -4.44,-4.17 -4.41,-5.28 -3.89,-5.30 -3.36,-5.32 -3.72,-5.82 -4.09,-6.33 -4.28,-6.92 -4.47,-7.52 -4.46,-8.14 -4.45,-8.77 -4.24,-9.36 -4.03,-9.94 -3.64,-10.43 -3.26,-10.93 -2.73,-11.27 -2.21,-11.61 -1.60,-11.76 -1.00,-11.92 -0.38,-11.88 0.24,-11.83 0.81,-11.59 1.39,-11.35 1.86,-10.93 2.33,-10.52 2.64,-9.98 2.95,-9.44 3.08,-8.83 3.20,-8.21 3.12,-7.59 3.04,-6.97 2.77,-6.41 2.50,-5.85 2.06,-5.40 1.62,-4.96 1.06,-4.68 0.51,-4.39 -0.10,-4.30 -0.72,-4.21 -1.33,-4.32 -1.95,-4.44 -2.50,-4.74 -3.04,-5.04 -3.46,-5.50 -3.89,-5.96 -4.14,-6.54 -4.39,-7.11 -4.45,-7.73 -4.50,-8.35 -4.36,-8.96 -4.21,-9.57 -3.88,-10.10 -3.55,-10.63 -3.06,-11.02 -2.58,-11.42 -2.00,-11.64 -1.41,-11.86 -0.79,-11.88 -0.16,-11.91 0.43,-11.73 1.02,-11.55 1.54,-11.19 2.05,-10.83 2.05,-10.83 2.05,-10.83 2.65,-7.62 3.25,-4.42 3.04,-3.21 2.82,-2.01 2.90,-0.37 2.97,1.26 2.74,1.66 2.51,2.06 2.19,2.39 1.86,2.72 1.47,2.97 1.08,3.22 0.64,3.37 0.20,3.51 -0.25,3.55 -0.71,3.59 -1.17,3.51 -1.62,3.44 -2.05,3.26 -2.47,3.07 -2.84,2.80 -3.22,2.52 -3.51,2.16 -3.80,1.80 -4.00,1.38 -4.20,0.96 -4.29,0.51 -4.38,0.06 -4.36,-0.40 -4.34,-0.86 -4.22,-1.30 -4.09,-1.75 -3.88,-2.21 -3.68,-2.68 -3.21,-3.77 -2.73,-4.86 -2.66,-5.32 -2.60,-5.77 -2.42,-6.20 -2.25,-6.62 -1.98,-6.99 -1.70,-7.36 -1.35,-7.66 -1.00,-7.95 -0.59,-8.15 -0.17,-8.36 0.26,-8.45 0.71,-8.55 1.17,-8.54 1.63,-8.52 2.07,-8.40 2.52,-8.28 2.92,-8.06 3.32,-7.83 3.65,-7.52 3.99,-7.20 4.24,-6.82 4.49,-6.43 4.64,-6.00 4.79,-5.56 4.83,-5.11 4.88,-4.65 4.90,-4.41 4.93,-4.18 4.81,-3.10 4.69,-2.02 4.26,-0.95 3.82,0.12 3.11,1.16 2.40,2.21 2.73,1.15 3.05,0.09 2.99,0.54 2.94,1.00 2.77,1.43 2.61,1.85 2.34,2.23 2.08,2.60 1.74,2.90 1.40,3.20 0.99,3.42 0.58,3.63 0.14,3.73 -0.30,3.84 -0.75,3.84 -1.21,3.84 -1.65,3.72 -2.10,3.61 -2.50,3.40 -2.90,3.18 -3.24,2.88 -3.59,2.57 -3.84,2.20 -4.10,1.82 -4.26,1.39 -4.42,0.96 -4.47,0.51 -4.53,0.05 -4.48,-0.51 -4.44,-1.08 -4.20,-2.17 -3.97,-3.26 -3.14,-4.25 -2.31,-5.25 -0.77,-5.99 0.75,-6.74 1.90,-6.84 3.04,-6.95 4.40,-7.05 5.77,-7.15 7.45,-7.24 9.13,-7.33 10.71,-7.10 12.28,-6.87 12.74,-6.95 13.20,-7.03 13.67,-7.01 14.13,-6.98 14.58,-6.84 15.02,-6.70 15.42,-6.46 15.82,-6.22 16.15,-5.89 16.48,-5.56 16.72,-5.16 16.96,-4.76 17.10,-4.32 17.24,-3.87 17.27,-3.41 17.29,-2.94 17.21,-2.48 17.13,-2.02 16.93,-1.60 16.74,-1.17 16.46,-0.81 16.17,-0.44 15.80,-0.15 15.43,0.13 15.01,0.32 14.58,0.51 13.42,-3.18 12.26,-6.88 12.72,-6.97 13.18,-7.05 13.64,-7.02 14.11,-7.00 14.55,-6.86 15.00,-6.72 15.40,-6.48 15.80,-6.24 16.13,-5.91 16.46,-5.58 16.70,-5.18 16.94,-4.78 17.08,-4.33 17.22,-3.89 17.24,-3.42 17.27,-2.96 17.19,-2.50 17.10,-2.04 16.91,-1.62 16.72,-1.19 16.43,-0.82 16.15,-0.46 15.78,-0.17 15.41,0.11 14.99,0.30 14.56,0.49 13.43,-3.17 12.29,-6.84 12.75,-6.92 13.21,-7.01 13.68,-6.98 14.14,-6.95 14.59,-6.81 15.03,-6.67 15.43,-6.43 15.83,-6.19 16.16,-5.86 16.49,-5.53 16.73,-5.13 16.97,-4.73 17.11,-4.29 17.25,-3.84 17.28,-3.38 17.31,-2.91 17.22,-2.45 17.14,-2.00 16.95,-1.57 16.75,-1.15 16.47,-0.78 16.18,-0.41 15.81,-0.12 15.45,0.15 15.02,0.35 14.60,0.54 14.55,0.55 14.50,0.55 13.26,0.70 12.02,0.85 10.90,0.98 9.78,1.12 8.67,1.22 7.56,1.32 6.51,1.49 5.46,1.67 3.90,1.82 2.35,1.97 1.27,1.59 0.18,1.21 -0.97,-0.43 -2.14,-2.07 -2.23,-3.27 -2.33,-4.48 -2.70,-5.64 -3.06,-6.80 -3.19,-7.99 -3.32,-9.19 -3.44,-9.62 -3.55,-10.05 -3.56,-10.49 -3.57,-10.94 -3.47,-11.37 -3.37,-11.80 -3.17,-12.20 -2.97,-12.60 -2.69,-12.94 -2.40,-13.27 -2.04,-13.53 -1.68,-13.79 -1.26,-13.96 -0.85,-14.12 -0.41,-14.18 0.02,-14.24 0.46,-14.20 0.90,-14.15 1.32,-14.00 1.74,-13.85 2.11,-13.61 2.47,-13.36 2.78,-13.04 3.08,-12.71 3.29,-12.32 3.50,-11.93 3.53,-11.89 3.56,-11.84 2.69,-12.63 1.81,-13.42 2.77,-12.67 3.72,-11.93 4.58,-11.19 5.44,-10.45 6.40,-10.00 7.37,-9.55 8.57,-8.85 9.76,-8.15 10.77,-7.64 11.79,-7.13 12.35,-5.44 12.91,-3.75 12.44,-2.66 11.98,-1.57 10.74,-0.83 9.49,-0.09 8.47,0.26 7.45,0.63 6.35,0.87 5.25,1.11 3.99,1.46 2.73,1.82 1.80,2.11 0.86,2.41 0.56,2.48 0.26,2.55 -0.04,2.54 -0.35,2.54 -0.65,2.46 -0.95,2.38 -1.22,2.23 -1.49,2.08 -1.72,1.87 -1.95,1.66 -2.12,1.40 -2.29,1.15 -2.39,0.86 -2.50,0.56 -2.53,0.26 -2.56,-0.04 -2.52,-0.35 -2.47,-0.65 -2.36,-0.94 -2.24,-1.23 -2.06,-1.48 -1.88,-1.73 -1.65,-1.93 -1.41,-2.13 -1.14,-2.27 -0.86,-2.41 -0.86,-2.41 L -0.86,-2.41 Z"></path></g><g stroke-linecap="round"><g transform="translate(305.08113710936766 382.63012078828) rotate(147.7066138002569 162.08309564684248 -0.422053964217298)"><path d="M-0.08 0.13 C53.95 -0.02, 270.21 -0.6, 324.24 -0.77 M0.15 0.06 C54.16 -0.13, 270.22 -0.84, 324.2 -0.97" stroke="#000000" stroke-width="1" fill="none"></path></g><g transform="translate(305.08113710936766 382.63012078828) rotate(147.7066138002569 162.08309564684248 -0.422053964217298)"><path d="M296.04 9.37 C306.78 5.8, 317.26 1.65, 324.2 -0.97 M296.04 9.37 C304.67 6.04, 313.38 3.11, 324.2 -0.97" stroke="#000000" stroke-width="1" fill="none"></path></g><g transform="translate(305.08113710936766 382.63012078828) rotate(147.7066138002569 162.08309564684248 -0.422053964217298)"><path d="M295.98 -11.15 C306.76 -7.06, 317.26 -3.56, 324.2 -0.97 M295.98 -11.15 C304.64 -8.17, 313.38 -4.79, 324.2 -0.97" stroke="#000000" stroke-width="1" fill="none"></path></g></g><mask></mask><g stroke-linecap="round"><g transform="translate(356.8403058940621 439.3742076011244) rotate(147.7066138002569 -0.48538757390076626 12.163328835792072)"><path d="M0.14 0.11 C-0.01 4.11, -0.81 20.08, -0.99 24.09 M0.03 0.04 C-0.14 4.13, -0.95 20.31, -1.11 24.28" stroke="#000000" stroke-width="1" fill="none"></path></g></g><mask></mask><g transform="translate(335.4583922533038 465.76008769691333) rotate(147.7066138002569 8.00548790005189 -6.531293725241369)" stroke="none"><path fill="#000000" d="M -0.87,-2.42 Q -0.87,-2.42 0.27,-2.85 1.42,-3.28 3.00,-3.91 4.59,-4.54 5.80,-4.98 7.01,-5.43 8.03,-5.91 9.06,-6.38 10.17,-7.29 11.27,-8.20 10.67,-7.00 10.07,-5.80 10.41,-4.25 10.76,-2.71 9.76,-3.09 8.75,-3.48 7.79,-4.00 6.83,-4.53 5.65,-5.01 4.46,-5.49 3.05,-6.01 1.64,-6.54 0.68,-7.17 -0.27,-7.80 -1.08,-8.83 -1.89,-9.86 -2.61,-10.83 -3.34,-11.80 -3.34,-11.82 -3.34,-11.85 -3.46,-12.28 -3.57,-12.71 -3.58,-13.16 -3.59,-13.61 -3.49,-14.05 -3.39,-14.49 -3.19,-14.89 -2.99,-15.29 -2.70,-15.63 -2.41,-15.98 -2.04,-16.24 -1.68,-16.50 -1.26,-16.67 -0.84,-16.83 -0.40,-16.90 0.04,-16.96 0.49,-16.91 0.93,-16.87 1.36,-16.72 1.78,-16.56 2.15,-16.32 2.53,-16.07 2.83,-15.74 3.14,-15.41 3.35,-15.01 3.57,-14.62 3.78,-13.34 4.00,-12.05 4.22,-11.01 4.43,-9.97 4.70,-8.93 4.96,-7.89 5.15,-6.71 5.34,-5.52 5.45,-4.34 5.56,-3.16 4.24,-4.33 2.93,-5.51 4.41,-5.96 5.90,-6.41 6.96,-6.59 8.02,-6.77 9.12,-6.94 10.22,-7.11 11.36,-7.19 12.51,-7.28 13.56,-7.39 14.62,-7.50 15.16,-7.57 15.69,-7.63 16.15,-7.72 16.61,-7.80 17.07,-7.77 17.54,-7.74 17.98,-7.60 18.43,-7.47 18.83,-7.22 19.23,-6.98 19.55,-6.65 19.88,-6.33 20.12,-5.93 20.37,-5.53 20.50,-5.08 20.64,-4.64 20.67,-4.17 20.70,-3.71 20.62,-3.25 20.53,-2.79 20.34,-2.37 20.15,-1.94 19.86,-1.58 19.57,-1.21 19.21,-0.92 18.84,-0.64 18.42,-0.44 17.99,-0.25 16.82,-3.97 15.65,-7.69 16.11,-7.77 16.57,-7.86 17.03,-7.83 17.50,-7.80 17.94,-7.66 18.39,-7.52 18.78,-7.28 19.18,-7.04 19.51,-6.71 19.84,-6.38 20.08,-5.98 20.32,-5.58 20.46,-5.14 20.60,-4.70 20.63,-4.23 20.66,-3.77 20.57,-3.31 20.49,-2.85 20.30,-2.42 20.11,-2.00 19.82,-1.63 19.53,-1.27 19.16,-0.98 18.80,-0.69 18.37,-0.50 17.95,-0.31 16.81,-3.99 15.68,-7.66 16.14,-7.75 16.60,-7.83 17.06,-7.80 17.52,-7.78 17.97,-7.64 18.41,-7.50 18.81,-7.26 19.21,-7.02 19.54,-6.69 19.87,-6.36 20.11,-5.96 20.35,-5.56 20.49,-5.12 20.63,-4.67 20.66,-4.21 20.68,-3.74 20.60,-3.28 20.52,-2.83 20.33,-2.40 20.13,-1.98 19.85,-1.61 19.56,-1.24 19.19,-0.96 18.83,-0.67 18.40,-0.48 17.98,-0.29 16.74,-0.31 15.51,-0.33 14.29,-0.42 13.08,-0.50 11.44,-0.56 9.80,-0.61 8.71,-0.61 7.61,-0.61 5.96,-0.55 4.31,-0.49 3.14,-0.21 1.97,0.06 2.38,0.08 2.80,0.11 2.74,0.56 2.68,1.00 2.52,1.42 2.36,1.84 2.10,2.21 1.85,2.58 1.51,2.87 1.17,3.17 0.77,3.38 0.37,3.58 -0.05,3.69 -0.49,3.79 -0.94,3.79 -1.39,3.79 -1.82,3.68 -2.26,3.57 -2.66,3.36 -3.05,3.15 -3.39,2.85 -3.72,2.55 -3.98,2.18 -4.23,1.81 -4.39,1.39 -4.54,0.96 -4.59,0.52 -4.65,0.07 -4.06,-1.29 -3.48,-2.67 -2.90,-3.70 -2.31,-4.74 -2.36,-5.40 -2.40,-6.06 -2.33,-6.51 -2.27,-6.96 -2.10,-7.38 -1.92,-7.79 -1.66,-8.16 -1.39,-8.52 -1.04,-8.81 -0.70,-9.10 -0.29,-9.30 0.11,-9.50 0.55,-9.60 0.99,-9.69 1.44,-9.68 1.89,-9.67 2.33,-9.55 2.76,-9.43 3.16,-9.21 3.55,-8.99 3.88,-8.68 4.21,-8.37 4.46,-7.99 4.71,-7.61 4.85,-7.18 5.00,-6.75 5.04,-6.30 5.09,-5.85 4.61,-4.61 4.13,-3.37 3.91,-2.32 3.69,-1.28 3.24,-0.03 2.79,1.21 2.79,1.19 2.79,1.18 2.56,1.57 2.33,1.97 2.01,2.30 1.69,2.63 1.31,2.87 0.92,3.12 0.49,3.26 0.05,3.41 -0.39,3.44 -0.85,3.48 -1.30,3.41 -1.75,3.33 -2.17,3.15 -2.59,2.97 -2.96,2.70 -3.33,2.42 -3.61,2.07 -3.90,1.71 -4.10,1.30 -4.30,0.89 -4.39,0.44 -4.48,-0.00 -4.46,-0.46 -4.44,-0.91 -4.31,-1.35 -4.19,-1.79 -4.14,-0.23 -4.10,1.32 -4.33,0.13 -4.55,-1.05 -4.56,-2.14 -4.57,-3.24 -4.57,-4.39 -4.58,-5.54 -4.04,-6.46 -3.50,-7.38 -3.86,-7.88 -4.23,-8.38 -4.41,-8.97 -4.60,-9.56 -4.59,-10.18 -4.58,-10.80 -4.37,-11.38 -4.16,-11.97 -3.78,-12.45 -3.40,-12.94 -2.88,-13.28 -2.36,-13.62 -1.76,-13.77 -1.16,-13.93 -0.54,-13.88 0.06,-13.84 0.63,-13.60 1.21,-13.36 1.67,-12.95 2.13,-12.54 2.44,-12.00 2.75,-11.47 2.88,-10.86 3.00,-10.25 2.92,-9.64 2.84,-9.03 2.57,-8.47 2.30,-7.91 1.87,-7.47 1.44,-7.03 0.88,-6.75 0.33,-6.47 -0.27,-6.38 -0.88,-6.29 -1.49,-6.40 -2.10,-6.51 -2.64,-6.81 -3.19,-7.11 -3.60,-7.57 -4.02,-8.03 -4.27,-8.59 -4.52,-9.16 -4.58,-9.77 -4.63,-10.39 -4.49,-10.99 -4.34,-11.60 -4.02,-12.12 -3.69,-12.64 -3.21,-13.04 -2.73,-13.43 -2.15,-13.65 -1.57,-13.87 -0.95,-13.89 -0.33,-13.91 0.25,-13.73 0.84,-13.56 1.35,-13.20 1.86,-12.85 1.86,-12.85 1.85,-12.85 2.46,-8.72 3.06,-4.60 2.85,-3.33 2.64,-2.06 2.71,-0.44 2.79,1.18 2.56,1.57 2.33,1.97 2.01,2.30 1.70,2.63 1.31,2.87 0.92,3.12 0.49,3.26 0.05,3.41 -0.39,3.44 -0.85,3.48 -1.30,3.41 -1.75,3.33 -2.17,3.15 -2.59,2.97 -2.96,2.70 -3.33,2.42 -3.61,2.07 -3.90,1.71 -4.10,1.30 -4.30,0.89 -4.39,0.44 -4.48,-0.00 -4.46,-0.46 -4.44,-0.91 -4.31,-1.35 -4.19,-1.79 -4.22,-1.58 -4.24,-1.36 -3.83,-2.65 -3.41,-3.95 -2.91,-5.00 -2.40,-6.06 -2.34,-6.51 -2.27,-6.96 -2.10,-7.38 -1.92,-7.79 -1.66,-8.16 -1.39,-8.52 -1.04,-8.81 -0.70,-9.10 -0.29,-9.30 0.11,-9.50 0.55,-9.60 0.99,-9.69 1.44,-9.68 1.89,-9.67 2.33,-9.55 2.76,-9.43 3.16,-9.21 3.55,-8.99 3.88,-8.68 4.21,-8.37 4.46,-7.99 4.71,-7.61 4.85,-7.18 5.00,-6.75 5.04,-6.30 5.09,-5.85 4.97,-6.22 4.86,-6.58 4.99,-5.51 5.11,-4.44 4.88,-3.23 4.64,-2.02 3.72,-0.95 2.80,0.11 2.74,0.56 2.68,1.00 2.52,1.42 2.36,1.84 2.10,2.21 1.85,2.58 1.51,2.87 1.17,3.17 0.77,3.38 0.37,3.58 -0.05,3.69 -0.49,3.79 -0.94,3.79 -1.39,3.79 -1.82,3.68 -2.26,3.57 -2.66,3.36 -3.05,3.15 -3.39,2.85 -3.72,2.55 -3.97,2.18 -4.23,1.81 -4.39,1.39 -4.54,0.96 -4.59,0.52 -4.65,0.07 -4.64,-0.32 -4.62,-0.73 -4.47,-1.80 -4.31,-2.86 -3.56,-4.05 -2.81,-5.24 -1.95,-5.90 -1.08,-6.55 0.03,-6.98 1.16,-7.41 2.52,-7.53 3.88,-7.64 5.57,-7.77 7.27,-7.91 8.54,-8.02 9.81,-8.13 11.49,-8.18 13.17,-8.22 14.43,-7.94 15.68,-7.66 16.14,-7.75 16.59,-7.83 17.06,-7.80 17.52,-7.78 17.97,-7.64 18.41,-7.50 18.81,-7.26 19.21,-7.02 19.54,-6.69 19.87,-6.36 20.11,-5.96 20.35,-5.56 20.49,-5.12 20.63,-4.67 20.66,-4.21 20.68,-3.74 20.60,-3.28 20.52,-2.83 20.33,-2.40 20.13,-1.98 19.85,-1.61 19.56,-1.24 19.19,-0.96 18.83,-0.67 18.40,-0.48 17.98,-0.29 16.81,-3.99 15.65,-7.69 16.11,-7.77 16.57,-7.86 17.03,-7.83 17.50,-7.80 17.94,-7.66 18.39,-7.52 18.78,-7.28 19.18,-7.04 19.51,-6.71 19.84,-6.38 20.08,-5.98 20.32,-5.58 20.46,-5.14 20.60,-4.70 20.63,-4.23 20.66,-3.77 20.57,-3.31 20.49,-2.85 20.30,-2.42 20.11,-2.00 19.82,-1.63 19.53,-1.27 19.17,-0.98 18.80,-0.69 18.37,-0.50 17.95,-0.31 16.82,-3.97 15.69,-7.63 16.15,-7.72 16.61,-7.80 17.07,-7.77 17.54,-7.74 17.98,-7.60 18.43,-7.47 18.83,-7.23 19.22,-6.98 19.55,-6.65 19.88,-6.33 20.12,-5.93 20.37,-5.53 20.50,-5.08 20.64,-4.64 20.67,-4.17 20.70,-3.71 20.62,-3.25 20.53,-2.79 20.34,-2.37 20.15,-1.94 19.86,-1.58 19.57,-1.21 19.21,-0.92 18.84,-0.64 18.42,-0.44 17.99,-0.25 17.64,-0.19 17.29,-0.13 16.05,-0.00 14.80,0.12 13.54,0.28 12.27,0.44 11.15,0.50 10.03,0.56 8.83,0.79 7.64,1.01 6.53,1.16 5.42,1.30 4.18,1.41 2.95,1.53 1.74,1.14 0.52,0.75 -0.73,-1.53 -2.00,-3.82 -2.06,-4.93 -2.12,-6.04 -2.54,-7.40 -2.97,-8.76 -3.16,-10.30 -3.34,-11.85 -3.46,-12.28 -3.57,-12.71 -3.58,-13.16 -3.59,-13.61 -3.49,-14.05 -3.39,-14.49 -3.19,-14.89 -2.99,-15.29 -2.70,-15.63 -2.41,-15.98 -2.04,-16.24 -1.68,-16.50 -1.26,-16.67 -0.84,-16.83 -0.40,-16.90 0.04,-16.96 0.49,-16.91 0.93,-16.87 1.36,-16.72 1.78,-16.56 2.15,-16.32 2.53,-16.07 2.83,-15.74 3.14,-15.41 3.35,-15.01 3.57,-14.62 3.61,-14.54 3.66,-14.46 2.81,-15.23 1.96,-15.99 2.97,-15.19 3.97,-14.40 4.84,-13.48 5.72,-12.57 6.79,-12.14 7.86,-11.70 8.87,-11.25 9.88,-10.79 10.91,-10.12 11.94,-9.46 13.14,-8.87 14.34,-8.27 14.93,-6.55 15.52,-4.82 14.27,-3.24 13.01,-1.65 11.96,-1.12 10.92,-0.59 9.79,-0.24 8.67,0.11 7.50,0.40 6.34,0.69 4.76,1.16 3.18,1.62 2.03,2.02 0.87,2.42 0.56,2.49 0.26,2.56 -0.04,2.55 -0.35,2.55 -0.65,2.47 -0.95,2.39 -1.22,2.24 -1.50,2.09 -1.72,1.88 -1.95,1.67 -2.13,1.41 -2.30,1.15 -2.40,0.86 -2.51,0.57 -2.54,0.26 -2.57,-0.04 -2.53,-0.35 -2.49,-0.66 -2.37,-0.94 -2.25,-1.23 -2.07,-1.49 -1.89,-1.74 -1.66,-1.94 -1.42,-2.14 -1.14,-2.28 -0.87,-2.42 -0.87,-2.42 L -0.87,-2.42 Z"></path></g></svg>