<svg version="1.1" xmlns="http://www.w3.org/2000/svg" viewBox="0 0 1556.0739167223392 387.08771082149167" width="1556.0739167223392" height="387.08771082149167" filter="invert(93%) hue-rotate(180deg)">
  <!-- svg-source:excalidraw -->
  
  <defs>
    <style class="style-fonts">
      @font-face {
        font-family: "Virgil";
        src: url("https://excalidraw.com/Virgil.woff2");
      }
      @font-face {
        font-family: "Cascadia";
        src: url("https://excalidraw.com/Cascadia.woff2");
      }
      @font-face {
        font-family: "Assistant";
        src: url("https://excalidraw.com/Assistant-Regular.woff2");
      }
    </style>
    
  </defs>
  <g stroke-linecap="round" transform="translate(10 10) rotate(0 221.22283975790737 80.35448439637003)"><path d="M40.18 0 C163.24 4.75, 284.84 1.36, 402.27 0 C432.02 0.75, 445.76 14.1, 442.45 40.18 C441.35 57.89, 443.31 77.5, 442.45 120.53 C444.16 146.82, 427.49 164.26, 402.27 160.71 C297.7 160.9, 194.36 164.15, 40.18 160.71 C16.28 161.21, -2.39 148.27, 0 120.53 C2.49 98.11, -3.67 70.55, 0 40.18 C1.08 13.1, 13.28 -1.77, 40.18 0" stroke="none" stroke-width="0" fill="#fff"></path><path d="M40.18 0 C150.52 2.1, 262.48 2.16, 402.27 0 M40.18 0 C166.88 2.03, 293.19 1.37, 402.27 0 M402.27 0 C428.05 -1.39, 442.31 12.43, 442.45 40.18 M402.27 0 C431.28 2.17, 440.29 15.32, 442.45 40.18 M442.45 40.18 C440.45 65.17, 443.63 90.21, 442.45 120.53 M442.45 40.18 C442.63 61.14, 443.55 80.9, 442.45 120.53 M442.45 120.53 C443.75 147.39, 429.16 161.04, 402.27 160.71 M442.45 120.53 C444.11 146.79, 428.74 162.49, 402.27 160.71 M402.27 160.71 C295.86 160.69, 186.4 160.24, 40.18 160.71 M402.27 160.71 C277.22 159.66, 153.41 159.16, 40.18 160.71 M40.18 160.71 C13.75 161.9, -0.45 147.89, 0 120.53 M40.18 160.71 C12.07 162.38, -2.17 147.43, 0 120.53 M0 120.53 C2.39 88.75, 1.05 59.31, 0 40.18 M0 120.53 C-0.68 92.95, -0.22 63.89, 0 40.18 M0 40.18 C-1.36 12.47, 11.4 1.64, 40.18 0 M0 40.18 C0.71 15.66, 15.37 2.06, 40.18 0" stroke="#000000" stroke-width="1" fill="none"></path></g><g transform="translate(180.8561748714327 67.85448439637003) rotate(0 50.36666488647461 22.5)"><text x="50.36666488647461" y="0" font-family="Virgil, Segoe UI Emoji" font-size="36px" fill="#000000" text-anchor="middle" style="white-space: pre;" direction="ltr" dominant-baseline="text-before-edge">App A</text></g><g stroke-linecap="round" transform="translate(10 216.37874202875156) rotate(0 221.22283975790737 80.35448439637005)"><path d="M40.18 0 C165.17 0.36, 286.42 0.43, 402.27 0 C425.81 -0.53, 440.51 14.98, 442.45 40.18 C439.96 63.53, 443.13 83.84, 442.45 120.53 C440.32 148.84, 427.49 162.98, 402.27 160.71 C290.46 160.32, 182.7 160.68, 40.18 160.71 C13.44 158.55, -1.19 144.33, 0 120.53 C3.2 87.02, -3.34 59.04, 0 40.18 C-0.81 14.21, 16.68 -0.99, 40.18 0" stroke="none" stroke-width="0" fill="#fff"></path><path d="M40.18 0 C128.5 -1.45, 219.84 -1.84, 402.27 0 M40.18 0 C174.7 -2.1, 309.17 -2.25, 402.27 0 M402.27 0 C428.05 1.22, 442.34 13.28, 442.45 40.18 M402.27 0 C428.86 1.72, 441.03 11.13, 442.45 40.18 M442.45 40.18 C443.76 59.73, 444.45 74.47, 442.45 120.53 M442.45 40.18 C442.06 58.8, 441.84 78.71, 442.45 120.53 M442.45 120.53 C443.55 147.44, 430.98 158.8, 402.27 160.71 M442.45 120.53 C444.13 145.79, 426.95 158.65, 402.27 160.71 M402.27 160.71 C293.23 159.82, 183.52 159.12, 40.18 160.71 M402.27 160.71 C267.95 159.62, 133.46 160.27, 40.18 160.71 M40.18 160.71 C13.14 162.08, -0.27 148.96, 0 120.53 M40.18 160.71 C14.94 159.84, 1.71 149.5, 0 120.53 M0 120.53 C0.36 94.09, -0.26 70.74, 0 40.18 M0 120.53 C0.3 95.76, 0.6 69.92, 0 40.18 M0 40.18 C-1 15.38, 13.1 -0.66, 40.18 0 M0 40.18 C1.76 12.76, 15.4 -1.72, 40.18 0" stroke="#000000" stroke-width="1" fill="none"></path></g><g transform="translate(179.5811733455538 274.23322642512164) rotate(0 51.641666412353516 22.5)"><text x="51.641666412353516" y="0" font-family="Virgil, Segoe UI Emoji" font-size="36px" fill="#000000" text-anchor="middle" style="white-space: pre;" direction="ltr" dominant-baseline="text-before-edge">App B</text></g><g stroke-linecap="round" transform="translate(696.4735995921397 105.72730055660202) rotate(0 209.8711888236512 78.48560109220563)"><path d="M-0.34 -1.64 L418.3 1.09 L418.59 157.53 L0.71 156.03" stroke="none" stroke-width="0" fill="#fff"></path><path d="M0 0 C105.27 0.69, 211.09 0.49, 419.74 0 M0 0 C97.87 -1.64, 195.61 -1.81, 419.74 0 M419.74 0 C422.02 48.21, 419.54 96.1, 419.74 156.97 M419.74 0 C420.25 50.44, 419.89 101.85, 419.74 156.97 M419.74 156.97 C272.13 157.14, 126.37 157.87, 0 156.97 M419.74 156.97 C270.76 158, 121.09 158.47, 0 156.97 M0 156.97 C0.1 104.3, -0.17 50.85, 0 0 M0 156.97 C-1.33 113.78, -0.66 70.33, 0 0" stroke="#000000" stroke-width="1" fill="none"></path></g><g transform="translate(817.5781181887402 161.71290164880764) rotate(0 88.76667022705078 22.5)"><text x="88.76667022705078" y="0" font-family="Virgil, Segoe UI Emoji" font-size="36px" fill="#000000" text-anchor="middle" style="white-space: pre;" direction="ltr" dominant-baseline="text-before-edge">Framework</text></g><g stroke-linecap="round"><g transform="translate(1456.9875977556098 135.28467265448143) rotate(0 44.06059301640448 47.85201411482009)" fill-rule="evenodd"><path d="M2.18 -1.47 C2.13 12.92, -1.58 70.03, -1.6 86.31 C-1.61 102.58, 0.89 93.6, 2.09 96.2 C3.28 98.81, 2.38 100.72, 5.59 101.94 C8.8 103.17, 14.25 103.06, 21.34 103.55 C28.44 104.05, 39.27 105.3, 48.16 104.91 C57.05 104.52, 68.35 102.54, 74.69 101.22 C81.03 99.89, 84.04 97.68, 86.2 96.98 C88.37 96.28, 87.66 98.23, 87.67 97.01 C87.67 95.78, 86.5 104.88, 86.25 89.63 C85.99 74.37, 86.3 20.14, 86.15 5.49 C86 -9.16, 86.4 3.41, 85.32 1.73 C84.24 0.04, 82.11 -3.12, 79.68 -4.62 C77.24 -6.13, 76.89 -6.62, 70.7 -7.31 C64.51 -8, 50.54 -8.78, 42.52 -8.77 C34.49 -8.76, 28.87 -7.81, 22.55 -7.26 C16.24 -6.71, 8.73 -6.4, 4.65 -5.47 C0.57 -4.54, -0.92 -2.27, -1.93 -1.7 C-2.94 -1.12, -1.9 -2.21, -1.41 -2.03" stroke="none" stroke-width="0" fill="#228be6" fill-rule="evenodd"></path><path d="M-0.38 0.74 C-0.42 15, -0.58 70.08, -0.4 85.85 C-0.21 101.62, -0.26 92.99, 0.73 95.38 C1.72 97.77, 2.41 98.93, 5.54 100.18 C8.67 101.44, 12.54 102.32, 19.51 102.89 C26.49 103.46, 38.45 103.63, 47.37 103.6 C56.29 103.57, 66.52 103.34, 73.03 102.71 C79.55 102.07, 83.99 101.08, 86.45 99.8 C88.92 98.53, 87.57 97.12, 87.82 95.06 C88.06 93, 87.72 102.06, 87.91 87.45 C88.1 72.85, 89.11 22.18, 88.96 7.46 C88.8 -7.27, 88.25 1.08, 86.99 -0.9 C85.72 -2.88, 84.41 -3.39, 81.38 -4.43 C78.35 -5.46, 75.25 -6.44, 68.82 -7.12 C62.38 -7.8, 50.77 -8.49, 42.78 -8.52 C34.79 -8.56, 27.55 -7.98, 20.87 -7.33 C14.19 -6.68, 6.18 -5.93, 2.7 -4.63 C-0.78 -3.33, 0.65 -0.21, 0.01 0.48 C-0.63 1.17, -1.04 -0.32, -1.13 -0.5 M1.63 0.08 C1.98 14.51, 2.17 71.22, 1.95 87.28 C1.74 103.34, -0.38 94.1, 0.34 96.45 C1.07 98.79, 2.82 100.27, 6.31 101.34 C9.8 102.41, 14.78 102.16, 21.28 102.87 C27.78 103.58, 36.54 105.88, 45.32 105.6 C54.1 105.33, 67.26 102.14, 73.98 101.21 C80.7 100.28, 83.65 101.28, 85.67 100.02 C87.69 98.76, 85.62 95.78, 86.1 93.63 C86.58 91.48, 88.54 101.28, 88.55 87.1 C88.56 72.92, 86.07 23.35, 86.14 8.56 C86.22 -6.22, 89.76 0.67, 88.97 -1.62 C88.18 -3.91, 84.34 -4.22, 81.38 -5.18 C78.42 -6.14, 77.58 -6.76, 71.21 -7.37 C64.83 -7.97, 51.37 -8.44, 43.14 -8.79 C34.92 -9.14, 28.31 -10.2, 21.88 -9.46 C15.44 -8.73, 8.39 -6.14, 4.54 -4.37 C0.69 -2.61, -0.58 0.48, -1.25 1.12 C-1.91 1.77, 0.4 -0.48, 0.54 -0.5" stroke="#0a11d3" stroke-width="1" fill="none"></path></g></g><mask></mask><g stroke-linecap="round"><g transform="translate(1457.6749593451073 200.57480068526894) rotate(0 44.154043139872556 4.448651936218312)"><path d="M-0.69 -0.2 C-0.12 0.24, 0.7 2.18, 3.04 3.43 C5.38 4.68, 9.71 6.46, 13.36 7.28 C17 8.11, 19.3 8.24, 24.91 8.39 C30.52 8.54, 39.23 8.27, 47.01 8.17 C54.8 8.07, 65.16 8.4, 71.61 7.79 C78.07 7.19, 82.98 5.94, 85.75 4.55 C88.52 3.16, 87.84 0.26, 88.22 -0.54 M1.15 -1.36 C1.66 -0.81, 0.48 3.05, 2.47 4.72 C4.47 6.39, 9.4 7.93, 13.11 8.65 C16.82 9.38, 19.29 9.21, 24.73 9.09 C30.17 8.97, 38.25 8.36, 45.74 7.94 C53.23 7.53, 62.85 7.3, 69.67 6.6 C76.48 5.9, 83.72 5.02, 86.63 3.76 C89.55 2.51, 86.61 -0.04, 87.15 -0.93" stroke="#0a11d3" stroke-width="1" fill="none"></path></g></g><mask></mask><g stroke-linecap="round"><g transform="translate(1456.5812178330457 167.5006461231972) rotate(0 44.154043139872556 4.448651936218312)"><path d="M0.72 -0.47 C1.39 0.23, 1.52 2.86, 3.32 4.01 C5.13 5.15, 7.76 5.74, 11.56 6.41 C15.35 7.07, 20.15 7.55, 26.1 7.99 C32.04 8.43, 39.64 8.86, 47.2 9.06 C54.77 9.25, 65.16 10.09, 71.5 9.15 C77.83 8.2, 82.45 4.97, 85.21 3.4 C87.96 1.83, 87.37 0.34, 88.05 -0.26 M-0.37 -1.77 C0.29 -0.83, 0.5 4.08, 2.9 5.6 C5.3 7.11, 10.09 6.84, 14.03 7.32 C17.97 7.8, 21.21 8.15, 26.54 8.47 C31.88 8.8, 38.88 9.26, 46.04 9.29 C53.19 9.32, 62.86 9.88, 69.49 8.67 C76.12 7.45, 82.9 3.53, 85.8 2.01 C88.7 0.48, 86.5 0.08, 86.89 -0.5" stroke="#0a11d3" stroke-width="1" fill="none"></path></g></g><mask></mask><g stroke-linecap="round" transform="translate(1455.460395146884 127.25997642738474) rotate(0 43.825373054270926 8.863351988406833)"><path d="M34.22 0.38 C42.72 -0.06, 55.55 0.05, 63.9 0.95 C72.26 1.85, 80.69 4, 84.33 5.79 C87.98 7.57, 88.65 9.99, 85.78 11.69 C82.9 13.38, 75.08 15, 67.1 15.94 C59.12 16.89, 47.2 17.51, 37.88 17.37 C28.56 17.22, 17.5 16.38, 11.17 15.07 C4.85 13.75, 0.3 11.41, -0.08 9.46 C-0.46 7.52, 3.07 4.88, 8.89 3.4 C14.7 1.91, 30.31 1.05, 34.81 0.57 C39.3 0.09, 35.74 0.42, 35.87 0.54 M45.86 -0.7 C54.67 -0.68, 66.42 0.71, 73.38 2.21 C80.35 3.72, 86.43 6.31, 87.64 8.32 C88.86 10.32, 85.88 12.73, 80.67 14.26 C75.45 15.79, 65.29 17, 56.36 17.5 C47.44 18, 35.66 17.93, 27.11 17.26 C18.57 16.6, 9.39 15.31, 5.09 13.53 C0.8 11.76, -0.73 8.55, 1.32 6.62 C3.37 4.68, 9.98 3.14, 17.41 1.94 C24.84 0.73, 41.17 -0.32, 45.89 -0.62 C50.61 -0.92, 45.64 -0.15, 45.72 0.15" stroke="none" stroke-width="0" fill="#fff"></path><path d="M36.03 0.36 C44.77 -0.04, 57.63 0.5, 65.89 1.41 C74.14 2.33, 82.39 4.12, 85.56 5.86 C88.72 7.6, 88.2 9.99, 84.86 11.85 C81.53 13.7, 73.69 16.07, 65.55 16.99 C57.41 17.91, 45.3 17.82, 36.01 17.37 C26.72 16.93, 15.81 15.83, 9.82 14.33 C3.83 12.83, -0.04 10.22, 0.06 8.35 C0.16 6.49, 3.91 4.53, 10.41 3.15 C16.91 1.76, 33.88 0.61, 39.05 0.04 C44.21 -0.53, 41.42 -0.41, 41.4 -0.25 M48.3 -0.32 C57.28 -0.18, 68.48 1.38, 75.13 2.74 C81.79 4.1, 87.66 5.94, 88.23 7.84 C88.8 9.75, 84.13 12.57, 78.56 14.19 C72.99 15.81, 63.8 17.05, 54.83 17.58 C45.85 18.11, 33.18 18.24, 24.71 17.38 C16.24 16.51, 7.77 14.22, 4 12.39 C0.24 10.56, -0.57 8.32, 2.13 6.41 C4.83 4.5, 12.44 2.09, 20.2 0.94 C27.97 -0.21, 44 -0.46, 48.71 -0.49 C53.43 -0.51, 48.67 0.44, 48.48 0.8" stroke="#0a11d3" stroke-width="1" fill="none"></path></g><g stroke-linecap="round" transform="translate(1526.9701274474646 151.8357793045182) rotate(0 6.423028523489847 6.970952181208048)"><path d="M4.97 0.13 C6.24 -0.24, 8.2 0.4, 9.45 1.12 C10.7 1.85, 12.02 3.22, 12.48 4.48 C12.93 5.74, 12.67 7.33, 12.19 8.68 C11.7 10.03, 10.71 11.66, 9.54 12.56 C8.37 13.46, 6.5 14.19, 5.17 14.08 C3.84 13.97, 2.44 13.02, 1.57 11.87 C0.69 10.73, 0 8.65, -0.1 7.19 C-0.19 5.73, 0.16 4.27, 1 3.13 C1.84 1.98, 4.25 0.79, 4.93 0.34 C5.61 -0.11, 5 0.33, 5.09 0.45 M5.19 -0.12 C6.58 -0.19, 8.93 0.68, 10.18 1.61 C11.43 2.53, 12.35 4.06, 12.68 5.42 C13.01 6.79, 12.63 8.46, 12.16 9.79 C11.69 11.12, 11 12.63, 9.87 13.4 C8.75 14.18, 6.78 14.84, 5.39 14.44 C4 14.03, 2.42 12.25, 1.51 10.98 C0.59 9.71, -0.07 8.39, -0.1 6.83 C-0.12 5.28, 0.5 2.77, 1.38 1.63 C2.25 0.5, 4.37 0.21, 5.15 0.02 C5.93 -0.18, 5.84 0.33, 6.05 0.45" stroke="none" stroke-width="0" fill="#fff"></path><path d="M6.82 0.21 C8.28 0.19, 10.38 0.97, 11.38 1.97 C12.37 2.97, 12.71 4.65, 12.78 6.21 C12.85 7.77, 12.55 10.13, 11.79 11.35 C11.03 12.56, 9.61 13.19, 8.23 13.48 C6.85 13.78, 4.77 13.79, 3.52 13.13 C2.26 12.47, 1.24 10.83, 0.68 9.51 C0.12 8.2, -0.21 6.62, 0.16 5.24 C0.54 3.87, 1.74 2.21, 2.93 1.27 C4.12 0.33, 6.65 -0.24, 7.3 -0.41 C7.94 -0.59, 6.82 0.1, 6.81 0.22 M5.37 0.04 C6.83 -0.21, 9.58 -0.1, 10.69 0.75 C11.8 1.59, 11.65 3.6, 12.02 5.13 C12.39 6.66, 13.33 8.47, 12.92 9.92 C12.51 11.37, 10.84 13.18, 9.55 13.81 C8.26 14.44, 6.51 14.15, 5.18 13.7 C3.85 13.25, 2.33 12.4, 1.58 11.1 C0.84 9.81, 0.65 7.52, 0.7 5.93 C0.75 4.35, 1.04 2.47, 1.87 1.58 C2.7 0.7, 5.13 0.72, 5.69 0.61 C6.24 0.49, 5.25 0.97, 5.18 0.9" stroke="#0a11d3" stroke-width="1" fill="none"></path></g><g stroke-linecap="round" transform="translate(1526.9701274474646 182.43823316357867) rotate(0 6.423028523489847 6.970952181208048)"><path d="M7.02 0.36 C8.36 0.42, 10.16 1.27, 11.06 2.2 C11.97 3.13, 12.4 4.54, 12.45 5.95 C12.5 7.36, 12.16 9.33, 11.37 10.65 C10.57 11.98, 8.99 13.42, 7.7 13.89 C6.41 14.37, 4.81 14.17, 3.61 13.49 C2.41 12.82, 1.13 11.17, 0.51 9.86 C-0.11 8.54, -0.43 6.99, -0.11 5.59 C0.2 4.2, 1.25 2.39, 2.39 1.5 C3.52 0.62, 5.88 0.45, 6.71 0.28 C7.55 0.1, 7.38 0.42, 7.4 0.45 M5.22 0.71 C6.56 0.42, 8.26 0.68, 9.41 1.28 C10.56 1.88, 11.5 3.02, 12.11 4.33 C12.72 5.65, 13.36 7.67, 13.07 9.19 C12.77 10.7, 11.53 12.69, 10.33 13.44 C9.13 14.18, 7.33 13.91, 5.89 13.66 C4.44 13.41, 2.7 13.09, 1.67 11.94 C0.64 10.79, -0.16 8.3, -0.3 6.78 C-0.44 5.25, -0.12 3.85, 0.82 2.79 C1.77 1.74, 4.56 0.86, 5.36 0.45 C6.17 0.04, 5.66 0.25, 5.67 0.33" stroke="none" stroke-width="0" fill="#fff"></path><path d="M7.64 0.02 C8.96 0.05, 10.2 0.94, 11.08 2.1 C11.96 3.27, 12.82 5.54, 12.92 7.01 C13.01 8.48, 12.54 9.85, 11.66 10.95 C10.78 12.04, 8.99 13.28, 7.65 13.58 C6.3 13.88, 4.77 13.38, 3.58 12.74 C2.38 12.1, 0.98 11.04, 0.47 9.74 C-0.04 8.43, 0.06 6.43, 0.51 4.93 C0.95 3.42, 2.06 1.49, 3.13 0.68 C4.2 -0.12, 6.17 0.25, 6.92 0.09 C7.66 -0.07, 7.61 -0.32, 7.62 -0.25 M6.29 -0.4 C7.55 -0.65, 8.18 0.29, 9.33 1.19 C10.48 2.1, 12.64 3.51, 13.2 5.02 C13.75 6.53, 13.25 8.9, 12.66 10.25 C12.07 11.6, 10.89 12.55, 9.67 13.14 C8.45 13.73, 6.64 14.22, 5.35 13.81 C4.07 13.39, 2.87 11.92, 1.99 10.63 C1.11 9.35, 0.13 7.39, 0.07 6.08 C0.02 4.78, 0.82 3.68, 1.64 2.8 C2.47 1.91, 4.46 1.3, 5.04 0.78 C5.61 0.26, 5.08 -0.44, 5.09 -0.34" stroke="#0a11d3" stroke-width="1" fill="none"></path></g><g stroke-linecap="round" transform="translate(1526.9701274474646 215.69903433807536) rotate(0 6.423028523489847 6.970952181208048)"><path d="M6.42 0.18 C7.65 -0.06, 9.1 0.3, 10.09 1.16 C11.09 2.02, 12.13 3.78, 12.39 5.34 C12.65 6.9, 12.26 9.15, 11.63 10.54 C11 11.92, 9.85 13.18, 8.61 13.67 C7.38 14.16, 5.58 13.93, 4.24 13.48 C2.91 13.03, 1.35 12.19, 0.6 10.97 C-0.15 9.74, -0.45 7.62, -0.25 6.12 C-0.05 4.62, 0.63 2.93, 1.78 1.96 C2.93 0.98, 5.87 0.59, 6.67 0.25 C7.46 -0.09, 6.65 -0.1, 6.55 -0.07 M6.17 0.57 C7.39 0.33, 8.89 0.69, 10.05 1.53 C11.22 2.37, 12.74 4.07, 13.15 5.6 C13.56 7.14, 13.19 9.5, 12.52 10.75 C11.85 12.01, 10.49 12.62, 9.15 13.13 C7.81 13.64, 5.89 14.31, 4.49 13.81 C3.09 13.32, 1.56 11.46, 0.75 10.18 C-0.06 8.89, -0.67 7.46, -0.39 6.13 C-0.1 4.79, 1.27 3.18, 2.46 2.16 C3.65 1.14, 6.11 0.34, 6.77 0.01 C7.43 -0.32, 6.45 -0.02, 6.4 0.17" stroke="none" stroke-width="0" fill="#fff"></path><path d="M7 -0.07 C8.25 0.05, 10.1 1.45, 11.08 2.5 C12.07 3.55, 12.87 4.83, 12.92 6.22 C12.98 7.6, 12.22 9.66, 11.42 10.84 C10.61 12.01, 9.39 12.86, 8.09 13.27 C6.79 13.68, 4.83 13.86, 3.62 13.29 C2.4 12.72, 1.34 11.28, 0.81 9.84 C0.28 8.4, 0.19 6.09, 0.45 4.66 C0.71 3.23, 1.22 2.09, 2.39 1.25 C3.57 0.4, 6.69 -0.2, 7.51 -0.41 C8.32 -0.62, 7.39 -0.14, 7.3 0.01 M5.84 0.08 C7.15 0.08, 9.98 0.7, 11.19 1.74 C12.39 2.78, 12.88 4.88, 13.07 6.33 C13.25 7.78, 12.98 9.22, 12.3 10.42 C11.62 11.63, 10.21 13.13, 8.98 13.56 C7.75 13.99, 6.25 13.58, 4.91 12.98 C3.57 12.37, 1.74 11.02, 0.93 9.92 C0.11 8.81, -0.1 7.59, 0.03 6.33 C0.16 5.07, 0.73 3.5, 1.7 2.36 C2.68 1.21, 5.19 -0.26, 5.87 -0.53 C6.54 -0.79, 5.78 0.57, 5.76 0.77" stroke="#0a11d3" stroke-width="1" fill="none"></path></g><g stroke-linecap="round"><g transform="translate(459.55676710886667 92.5500029285908) rotate(0 114.16696367547956 41.16597247913927)"><path d="M-0.96 1.14 C36.83 15.05, 189.11 69.58, 227.49 83.27 M0.74 0.69 C38.84 14.29, 191.7 68.18, 229.75 81.64" stroke="#1e1e1e" stroke-width="1" fill="none"></path></g><g transform="translate(459.55676710886667 92.5500029285908) rotate(0 114.16696367547956 41.16597247913927)"><path d="M204.75 81.88 C215.72 80.58, 224.45 83.57, 229.75 81.64 M204.75 81.88 C215.08 81.84, 224.11 81.05, 229.75 81.64" stroke="#1e1e1e" stroke-width="1" fill="none"></path></g><g transform="translate(459.55676710886667 92.5500029285908) rotate(0 114.16696367547956 41.16597247913927)"><path d="M210.45 65.76 C219.33 70.26, 225.99 79.09, 229.75 81.64 M210.45 65.76 C218.55 71.77, 225.43 77.1, 229.75 81.64" stroke="#1e1e1e" stroke-width="1" fill="none"></path></g></g><mask></mask><g stroke-linecap="round"><g transform="translate(463.9478041733081 284.6578744979075) rotate(0 109.77592661103802 -45.55700954358082)"><path d="M0.99 0.47 C37.38 -14.55, 182.85 -75.62, 219.41 -90.83 M0.05 -0.34 C36.18 -15.67, 181.72 -77.37, 218.39 -92.8" stroke="#1e1e1e" stroke-width="1" fill="none"></path></g><g transform="translate(463.9478041733081 284.6578744979075) rotate(0 109.77592661103802 -45.55700954358082)"><path d="M200.08 -75.78 C208.09 -82.8, 214.93 -87.83, 218.39 -92.8 M200.08 -75.78 C205.06 -82.19, 211.64 -87.13, 218.39 -92.8" stroke="#1e1e1e" stroke-width="1" fill="none"></path></g><g transform="translate(463.9478041733081 284.6578744979075) rotate(0 109.77592661103802 -45.55700954358082)"><path d="M193.42 -91.53 C203.93 -92.46, 213.36 -91.36, 218.39 -92.8 M193.42 -91.53 C200.68 -92.76, 209.46 -92.5, 218.39 -92.8" stroke="#1e1e1e" stroke-width="1" fill="none"></path></g></g><mask></mask><g stroke-linecap="round"><g transform="translate(1124.7988823717574 189.15281834630446) rotate(0 161.91949175128093 -0.5488796330551509)"><path d="M0.62 -0.81 C54.43 -0.92, 268.99 -1.41, 322.86 -1.5 M-0.51 1.38 C53.67 1.52, 271.13 0.08, 325.06 -0.18" stroke="#1e1e1e" stroke-width="1" fill="none"></path></g><g transform="translate(1124.7988823717574 189.15281834630446) rotate(0 161.91949175128093 -0.5488796330551509)"><path d="M301.62 8.51 C307.39 4.14, 315.11 3.16, 325.06 -0.18 M301.62 8.51 C307.81 5.35, 315.19 3.98, 325.06 -0.18" stroke="#1e1e1e" stroke-width="1" fill="none"></path></g><g transform="translate(1124.7988823717574 189.15281834630446) rotate(0 161.91949175128093 -0.5488796330551509)"><path d="M301.52 -8.59 C307.19 -7.81, 314.95 -3.65, 325.06 -0.18 M301.52 -8.59 C307.84 -7, 315.25 -3.63, 325.06 -0.18" stroke="#1e1e1e" stroke-width="1" fill="none"></path></g></g><mask></mask></svg>