<svg version="1.1" xmlns="http://www.w3.org/2000/svg" viewBox="0 0 786.3361095852322 732.2777777777778" width="786.3361095852322" height="732.2777777777778">
  <!-- svg-source:excalidraw -->
  
  <defs>
    <style class="style-fonts">
      @font-face {
        font-family: "Virgil";
        src: url("https://excalidraw.com/Virgil.woff2");
      }
      @font-face {
        font-family: "Cascadia";
        src: url("https://excalidraw.com/Cascadia.woff2");
      }
    </style>
    
  </defs>
  <rect x="0" y="0" width="786.3361095852322" height="732.2777777777778" fill="#ffffff"></rect><g stroke-linecap="round" transform="translate(279 10) rotate(0 72.5 60.5)"><path d="M91.45 2.52 C101.25 3.51, 111.53 8.17, 119.53 13.9 C127.52 19.63, 135.13 28.88, 139.42 36.9 C143.71 44.92, 145.71 53.34, 145.27 61.99 C144.83 70.64, 141.68 80.85, 136.78 88.8 C131.87 96.76, 124.18 104.61, 115.83 109.72 C107.47 114.82, 97.04 118, 86.62 119.45 C76.2 120.9, 63.54 120.71, 53.3 118.43 C43.07 116.15, 33.08 111.55, 25.2 105.78 C17.33 100, 10.37 91.74, 6.05 83.8 C1.72 75.86, -1.01 66.87, -0.76 58.13 C-0.5 49.38, 2.56 38.94, 7.6 31.35 C12.63 23.76, 20.81 17.65, 29.48 12.6 C38.15 7.56, 48.25 2.55, 59.61 1.08 C70.98 -0.39, 90.21 2.81, 97.67 3.78 C105.12 4.74, 104.69 5.85, 104.34 6.86 M87.75 2.28 C97.69 3.4, 110.41 8.13, 118.59 13.5 C126.77 18.86, 132.31 26.47, 136.82 34.47 C141.32 42.48, 145.23 52.97, 145.61 61.51 C145.99 70.06, 143.62 78.19, 139.08 85.74 C134.53 93.3, 126.67 101.18, 118.35 106.83 C110.04 112.48, 99.58 117.65, 89.17 119.64 C78.76 121.63, 66.22 120.6, 55.9 118.75 C45.58 116.89, 35.42 114.01, 27.24 108.5 C19.05 103, 11.54 93.67, 6.8 85.72 C2.07 77.78, -1.41 69.5, -1.17 60.84 C-0.92 52.18, 3.69 41.99, 8.26 33.77 C12.82 25.54, 17.89 16.83, 26.24 11.49 C34.59 6.15, 47.7 3.52, 58.36 1.73 C69.02 -0.06, 84.92 0.38, 90.21 0.73 C95.5 1.08, 90.78 2.56, 90.1 3.84" stroke="#1e1e1e" stroke-width="1" fill="none"></path></g><g transform="translate(320.2930908072126 58.22003973821387) rotate(0 31.441667556762695 12.5)"><text x="31.441667556762695" y="0" font-family="Virgil, Segoe UI Emoji" font-size="20px" fill="#1e1e1e" text-anchor="middle" style="white-space: pre;" direction="ltr" dominant-baseline="text-before-edge">source</text></g><g stroke-linecap="round" transform="translate(310.16666666666663 601.2777777777778) rotate(0 72.5 60.5)"><path d="M43.91 4.95 C52.6 1, 65.65 0.42, 76.26 0.66 C86.87 0.9, 98.35 2.34, 107.56 6.39 C116.76 10.44, 125.54 17.71, 131.5 24.97 C137.45 32.24, 141.36 41.31, 143.29 49.98 C145.22 58.66, 145.82 68.82, 143.08 77.04 C140.34 85.26, 133.89 92.62, 126.83 99.3 C119.78 105.98, 110.37 113.41, 100.76 117.11 C91.14 120.8, 79.64 122.12, 69.12 121.48 C58.61 120.84, 47.06 117.53, 37.69 113.28 C28.31 109.03, 18.98 102.86, 12.86 95.97 C6.75 89.07, 2.83 80.53, 0.97 71.91 C-0.89 63.28, -1.15 52.8, 1.69 44.19 C4.53 35.59, 9.83 27.05, 18.03 20.28 C26.22 13.5, 44.44 6.4, 50.86 3.55 C57.27 0.7, 56.34 2.23, 56.52 3.17 M74.75 -0.32 C84.67 -0.7, 96.92 3.68, 106.48 7.77 C116.04 11.86, 125.95 17.43, 132.11 24.22 C138.26 31.01, 141.77 39.8, 143.41 48.49 C145.06 57.18, 144.46 67.51, 141.97 76.36 C139.47 85.2, 135.37 94.7, 128.44 101.57 C121.52 108.43, 110.06 114.15, 100.43 117.55 C90.8 120.95, 81.25 122.39, 70.65 121.98 C60.04 121.57, 46.21 119.17, 36.79 115.09 C27.36 111, 19.9 104.9, 14.11 97.47 C8.31 90.04, 4.04 79.2, 2.04 70.49 C0.04 61.78, -0.59 53.45, 2.11 45.22 C4.81 37, 11.49 28.06, 18.26 21.15 C25.03 14.23, 33.19 7.06, 42.75 3.74 C52.31 0.42, 70.35 1.74, 75.63 1.21 C80.91 0.68, 74.64 -0.25, 74.41 0.56" stroke="#1e1e1e" stroke-width="1" fill="none"></path></g><g transform="translate(365.7430922059349 649.4978175159918) rotate(0 17.15833282470703 12.5)"><text x="17.15833282470703" y="0" font-family="Virgil, Segoe UI Emoji" font-size="20px" fill="#1e1e1e" text-anchor="middle" style="white-space: pre;" direction="ltr" dominant-baseline="text-before-edge">sink</text></g><g stroke-linecap="round" transform="translate(272.5 196.5) rotate(0 72.5 60.5)"><path d="M57.05 2.52 C66.51 -0.23, 78.02 0.03, 87.99 1.88 C97.96 3.74, 108.57 8.17, 116.87 13.66 C125.16 19.15, 133.04 27.05, 137.77 34.8 C142.5 42.56, 145.27 51.68, 145.23 60.2 C145.2 68.72, 142.15 78.18, 137.57 85.94 C132.99 93.7, 125.73 101.17, 117.74 106.77 C109.75 112.38, 99.95 117.6, 89.63 119.57 C79.31 121.55, 66.26 120.47, 55.83 118.63 C45.39 116.78, 35.11 113.86, 27.04 108.51 C18.97 103.16, 11.92 94.49, 7.4 86.53 C2.88 78.57, 0.11 69.57, -0.1 60.74 C-0.31 51.9, 1.68 41.47, 6.13 33.51 C10.57 25.54, 17.79 18.25, 26.57 12.96 C35.36 7.68, 52.8 3.61, 58.84 1.79 C64.87 -0.02, 62.29 1.06, 62.76 2.08 M52.79 1.71 C61.78 -1.33, 73.8 0.53, 84.21 2.2 C94.63 3.86, 106.83 6.67, 115.29 11.71 C123.75 16.74, 129.95 24.76, 134.95 32.39 C139.95 40.02, 144.61 49.22, 145.28 57.49 C145.96 65.75, 142.97 74.15, 139.01 81.97 C135.05 89.79, 129.13 98.09, 121.52 104.39 C113.9 110.69, 103.25 116.95, 93.32 119.77 C83.39 122.59, 72.58 122.81, 61.95 121.3 C51.32 119.79, 38.17 115.9, 29.54 110.71 C20.92 105.52, 15.21 98.17, 10.2 90.17 C5.19 82.18, 0.49 71.36, -0.49 62.74 C-1.48 54.11, 0.05 46.2, 4.31 38.39 C8.57 30.59, 16.83 21.71, 25.04 15.91 C33.26 10.12, 49.12 5.58, 53.58 3.62 C58.04 1.67, 51.51 3.57, 51.81 4.17" stroke="#1e1e1e" stroke-width="1" fill="none"></path></g><g transform="translate(302.67642401338935 232.22003973821387) rotate(0 42.55833435058594 25)"><text x="42.55833435058594" y="0" font-family="Virgil, Segoe UI Emoji" font-size="20px" fill="#1e1e1e" text-anchor="middle" style="white-space: pre;" direction="ltr" dominant-baseline="text-before-edge">agrupar </text><text x="42.55833435058594" y="25" font-family="Virgil, Segoe UI Emoji" font-size="20px" fill="#1e1e1e" text-anchor="middle" style="white-space: pre;" direction="ltr" dominant-baseline="text-before-edge">por key</text></g><g stroke-linecap="round" transform="translate(290.5 401.5) rotate(0 72.5 60.5)"><path d="M49.85 2.82 C58.94 -0.7, 70.84 -0.51, 81.15 0.56 C91.46 1.64, 102.97 4.72, 111.71 9.26 C120.44 13.81, 128.17 20.31, 133.57 27.85 C138.96 35.38, 142.8 45.81, 144.09 54.48 C145.37 63.16, 144.85 71.82, 141.28 79.88 C137.71 87.94, 130.29 96.51, 122.67 102.84 C115.04 109.18, 105.19 114.92, 95.54 117.91 C85.89 120.9, 75.01 121.85, 64.77 120.77 C54.53 119.69, 43 116.08, 34.11 111.41 C25.22 106.75, 17.13 100.19, 11.43 92.79 C5.73 85.39, 1.21 75.61, -0.08 67.02 C-1.38 58.42, 0.03 49.54, 3.64 41.21 C7.25 32.88, 13.64 23.34, 21.59 17.03 C29.54 10.72, 45.75 5.75, 51.35 3.35 C56.95 0.95, 54.63 1.71, 55.2 2.63 M56.37 2.55 C65.5 0.08, 77.08 0.33, 87.28 1.98 C97.48 3.64, 109.29 7.25, 117.55 12.47 C125.81 17.69, 132.34 25.54, 136.85 33.31 C141.37 41.07, 144.65 50.11, 144.65 59.08 C144.66 68.06, 141.14 79.12, 136.86 87.18 C132.57 95.23, 126.99 102.15, 118.92 107.41 C110.86 112.68, 98.9 116.87, 88.46 118.78 C78.02 120.69, 66.35 120.67, 56.29 118.89 C46.23 117.12, 36.3 113.39, 28.11 108.12 C19.91 102.85, 11.86 95.17, 7.13 87.27 C2.4 79.38, -0.16 69.73, -0.25 60.77 C-0.34 51.8, 2.2 41.38, 6.59 33.49 C10.97 25.6, 17.91 18.63, 26.05 13.43 C34.2 8.23, 50.68 4.07, 55.46 2.28 C60.24 0.48, 54.43 1.54, 54.72 2.66" stroke="#1e1e1e" stroke-width="1" fill="none"></path></g><g transform="translate(321.81809042574287 437.2200397382139) rotate(0 41.41666793823242 25)"><text x="41.41666793823242" y="0" font-family="Virgil, Segoe UI Emoji" font-size="20px" fill="#1e1e1e" text-anchor="middle" style="white-space: pre;" direction="ltr" dominant-baseline="text-before-edge">transfor</text><text x="41.41666793823242" y="25" font-family="Virgil, Segoe UI Emoji" font-size="20px" fill="#1e1e1e" text-anchor="middle" style="white-space: pre;" direction="ltr" dominant-baseline="text-before-edge">mar</text></g><g stroke-linecap="round"><g transform="translate(335.50818151585645 135.5939381578226) rotate(0 1.0451389982822548 30.913782011297386)"><path d="M-0.13 1.06 C0.53 11.21, 3.15 49.86, 3.74 59.86 M-1.65 0.56 C-1.1 10.99, 2.27 51.48, 3 61.26" stroke="#1e1e1e" stroke-width="1" fill="none"></path></g><g transform="translate(335.50818151585645 135.5939381578226) rotate(0 1.0451389982822548 30.913782011297386)"><path d="M-7.69 34.62 C-6.59 41.86, -1.02 48.67, 3.79 60.13 M-9.1 33.06 C-6.51 40.33, -3.26 44.3, 2.45 60.7" stroke="#1e1e1e" stroke-width="1" fill="none"></path></g><g transform="translate(335.50818151585645 135.5939381578226) rotate(0 1.0451389982822548 30.913782011297386)"><path d="M12.77 33.01 C8.06 40.67, 7.83 47.95, 3.79 60.13 M11.36 31.44 C9.77 39.01, 8.84 43.32, 2.45 60.7" stroke="#1e1e1e" stroke-width="1" fill="none"></path></g></g><mask></mask><g stroke-linecap="round"><g transform="translate(329.31488068141834 325.58934719742797) rotate(0 5.253602513582564 38.084650076502726)"><path d="M0.62 -0.04 C2.32 12.58, 9.09 63.02, 11.02 75.8 M-0.51 -1.11 C0.92 11.7, 7.78 64.64, 9.82 77.28" stroke="#1e1e1e" stroke-width="1" fill="none"></path></g><g transform="translate(329.31488068141834 325.58934719742797) rotate(0 5.253602513582564 38.084650076502726)"><path d="M-4.38 50.03 C0.7 61.61, 7.38 71.45, 9.43 77.57 M-3.83 51.23 C1.23 59.78, 4.49 69.31, 10.56 77.67" stroke="#1e1e1e" stroke-width="1" fill="none"></path></g><g transform="translate(329.31488068141834 325.58934719742797) rotate(0 5.253602513582564 38.084650076502726)"><path d="M15.93 47.13 C13.54 59.88, 12.74 70.79, 9.43 77.57 M16.49 48.33 C14.71 58.05, 11.17 68.55, 10.56 77.67" stroke="#1e1e1e" stroke-width="1" fill="none"></path></g></g><mask></mask><g stroke-linecap="round"><g transform="translate(346.8669175849998 523.7972241342534) rotate(0 3.792463679632249 39.22603136549009)"><path d="M0.18 -1.12 C1.37 11.73, 5.1 64.98, 6.46 77.97 M-1.19 0.91 C0.45 13.9, 7.21 66.79, 8.77 79.57" stroke="#1e1e1e" stroke-width="1" fill="none"></path></g><g transform="translate(346.8669175849998 523.7972241342534) rotate(0 3.792463679632249 39.22603136549009)"><path d="M-6.78 51.6 C-1.2 61.2, 0.17 66.29, 8.79 80.74 M-5.2 53.09 C-0.7 59.52, 2.09 67.03, 9.26 79.7" stroke="#1e1e1e" stroke-width="1" fill="none"></path></g><g transform="translate(346.8669175849998 523.7972241342534) rotate(0 3.792463679632249 39.22603136549009)"><path d="M13.58 49.05 C14.25 59.3, 10.69 65, 8.79 80.74 M15.16 50.53 C14.18 57.82, 11.48 66.01, 9.26 79.7" stroke="#1e1e1e" stroke-width="1" fill="none"></path></g></g><mask></mask><g transform="translate(10 172) rotate(0 83.5250015258789 12.5)"><text x="0" y="0" font-family="Virgil, Segoe UI Emoji" font-size="20px" fill="#1e1e1e" text-anchor="start" style="white-space: pre;" direction="ltr" dominant-baseline="text-before-edge">Topologia simples</text></g><g stroke-linecap="round"><g transform="translate(579.1111111111111 144.4444444444444) rotate(0 -66.86356520854866 -24.4718788434146)"><path d="M-0.53 -0.61 C-22.81 -8.88, -111.9 -42.48, -134.46 -50.62 M1.39 1.68 C-20.92 -6.35, -112.65 -40.55, -135.12 -49.41" stroke="#1e1e1e" stroke-width="1" fill="none"></path></g><g transform="translate(579.1111111111111 144.4444444444444) rotate(0 -66.86356520854866 -24.4718788434146)"><path d="M-106.15 -48.04 C-113.14 -50.63, -118.19 -48.35, -135.94 -49.25 M-105.69 -49.42 C-116.36 -49.16, -125.55 -49.19, -135.09 -49.34" stroke="#1e1e1e" stroke-width="1" fill="none"></path></g><g transform="translate(579.1111111111111 144.4444444444444) rotate(0 -66.86356520854866 -24.4718788434146)"><path d="M-113.47 -28.87 C-118.59 -35.89, -121.93 -38.08, -135.94 -49.25 M-113.01 -30.25 C-121.16 -36.68, -127.78 -43.42, -135.09 -49.34" stroke="#1e1e1e" stroke-width="1" fill="none"></path></g></g><mask></mask><g transform="translate(581.6111111111111 144.4444444444444) rotate(0 82.40833282470703 12.5)"><text x="0" y="0" font-family="Virgil, Segoe UI Emoji" font-size="20px" fill="#1e1e1e" text-anchor="start" style="white-space: pre;" direction="ltr" dominant-baseline="text-before-edge">source processor</text></g><g stroke-linecap="round"><g transform="translate(566.6111111111111 305.6944444444444) rotate(0 -65.79868559848978 -21.420189753579905)"><path d="M0.48 -1.02 C-21.54 -8.5, -109.54 -36.85, -131.6 -43.89 M-0.73 1.05 C-22.87 -6.32, -110.15 -34.69, -132.08 -42.43" stroke="#1e1e1e" stroke-width="1" fill="none"></path></g><g transform="translate(566.6111111111111 305.6944444444444) rotate(0 -65.79868559848978 -21.420189753579905)"><path d="M-103.79 -41.65 C-112.52 -41.71, -121.75 -42.87, -134.04 -42.17 M-102.66 -43.78 C-110.08 -43.44, -119.54 -41.88, -132.45 -42.51" stroke="#1e1e1e" stroke-width="1" fill="none"></path></g><g transform="translate(566.6111111111111 305.6944444444444) rotate(0 -65.79868559848978 -21.420189753579905)"><path d="M-110.35 -22.2 C-117.01 -28.9, -124 -36.69, -134.04 -42.17 M-109.21 -24.34 C-114.93 -29.56, -122.55 -33.49, -132.45 -42.51" stroke="#1e1e1e" stroke-width="1" fill="none"></path></g></g><mask></mask><g stroke-linecap="round"><g transform="translate(590.3611111111111 355.6944444444444) rotate(0 -74.73694353264295 44.24122437611223)"><path d="M0.55 -0.55 C-24.54 14.3, -124.1 74.02, -149.39 89.03 M-0.63 1.78 C-25.92 16.25, -125.31 72.76, -150.02 87.06" stroke="#1e1e1e" stroke-width="1" fill="none"></path></g><g transform="translate(590.3611111111111 355.6944444444444) rotate(0 -74.73694353264295 44.24122437611223)"><path d="M-131.57 65.16 C-137.84 71.31, -144.7 82.73, -149.89 85.11 M-131 65.05 C-134 69.58, -139.35 74.46, -150.53 87.13" stroke="#1e1e1e" stroke-width="1" fill="none"></path></g><g transform="translate(590.3611111111111 355.6944444444444) rotate(0 -74.73694353264295 44.24122437611223)"><path d="M-121.37 82.96 C-131.66 82.14, -142.54 86.53, -149.89 85.11 M-120.8 82.86 C-125.96 83.54, -133.54 84.53, -150.53 87.13" stroke="#1e1e1e" stroke-width="1" fill="none"></path></g></g><mask></mask><g transform="translate(606.702778286404 311.9444444444444) rotate(0 84.81666564941406 12.5)"><text x="0" y="0" font-family="Virgil, Segoe UI Emoji" font-size="20px" fill="#1e1e1e" text-anchor="start" style="white-space: pre;" direction="ltr" dominant-baseline="text-before-edge">stream processor</text></g><g transform="translate(556.702778286404 619.4444444444443) rotate(0 68.125 12.5)"><text x="0" y="0" font-family="Virgil, Segoe UI Emoji" font-size="20px" fill="#1e1e1e" text-anchor="start" style="white-space: pre;" direction="ltr" dominant-baseline="text-before-edge">sink processor</text></g><g stroke-linecap="round"><g transform="translate(551.6111111111111 634.4444444444443) rotate(0 -43.979247475164016 5.620126358019206)"><path d="M-0.64 0.71 C-15.28 2.51, -74.12 8.34, -88.84 10.21 M1.22 0.03 C-13.39 2, -74.11 9.54, -89.18 11.21" stroke="#1e1e1e" stroke-width="1" fill="none"></path></g><g transform="translate(551.6111111111111 634.4444444444443) rotate(0 -43.979247475164016 5.620126358019206)"><path d="M-61.22 -0.37 C-69.99 2.2, -72.86 4.32, -89.57 10.66 M-62.5 -2.85 C-69.51 1.05, -75 4.43, -89.19 11.5" stroke="#1e1e1e" stroke-width="1" fill="none"></path></g><g transform="translate(551.6111111111111 634.4444444444443) rotate(0 -43.979247475164016 5.620126358019206)"><path d="M-58.8 20.01 C-68 18.15, -71.39 15.86, -89.57 10.66 M-60.08 17.53 C-67.64 16.67, -73.69 15.28, -89.19 11.5" stroke="#1e1e1e" stroke-width="1" fill="none"></path></g></g><mask></mask></svg>