<svg version="1.1" xmlns="http://www.w3.org/2000/svg" viewBox="0 0 1543.7886369082341 1043.111636014875" width="1543.7886369082341" height="1043.111636014875" filter="invert(93%) hue-rotate(180deg)">
  <!-- svg-source:excalidraw -->
  
  <defs>
    <style class="style-fonts">
      @font-face {
        font-family: "Virgil";
        src: url("https://excalidraw.com/Virgil.woff2");
      }
      @font-face {
        font-family: "Cascadia";
        src: url("https://excalidraw.com/Cascadia.woff2");
      }
      @font-face {
        font-family: "Assistant";
        src: url("https://excalidraw.com/Assistant-Regular.woff2");
      }
    </style>
    
  </defs>
  <rect x="0" y="0" width="1543.7886369082341" height="1043.111636014875" fill="#ffffff"></rect><g stroke-linecap="round" transform="translate(144.55458745094734 754.2807824228382) rotate(0 97.7005746838239 62.57227816829169)"><path d="M31.29 0 C71.64 -0.46, 113.58 -1.44, 164.12 0 M31.29 0 C82.14 0.25, 133.6 0.14, 164.12 0 M164.12 0 C183.44 0.03, 195.46 11.07, 195.4 31.29 M164.12 0 C184.13 -1.02, 193.35 12.25, 195.4 31.29 M195.4 31.29 C196.26 43.53, 195.18 59.41, 195.4 93.86 M195.4 31.29 C196.3 50.77, 194.82 70.46, 195.4 93.86 M195.4 93.86 C196.48 113.82, 183.7 126.35, 164.12 125.14 M195.4 93.86 C195.94 114.37, 183.1 123.25, 164.12 125.14 M164.12 125.14 C113.91 125.85, 61.19 125.58, 31.29 125.14 M164.12 125.14 C124.76 124.62, 83.99 125.48, 31.29 125.14 M31.29 125.14 C10.11 123.86, 0.8 114.7, 0 93.86 M31.29 125.14 C11.54 126.15, -1.35 114.92, 0 93.86 M0 93.86 C-0.58 75.67, 0.55 57.56, 0 31.29 M0 93.86 C0.8 77.85, 0.19 62.05, 0 31.29 M0 31.29 C1.39 9.47, 11.48 0.54, 31.29 0 M0 31.29 C-2.22 11.29, 8.47 -1.37, 31.29 0" stroke="#1e1e1e" stroke-width="1" fill="none"></path></g><g transform="translate(154.36349190772046 804.3530605911301) rotate(0 87.89167022705078 12.5)"><text x="87.89167022705078" y="0" font-family="Virgil, Segoe UI Emoji" font-size="20px" fill="#1e1e1e" text-anchor="middle" style="white-space: pre;" direction="ltr" dominant-baseline="text-before-edge">PagamentoCredito</text></g><g stroke-linecap="round" transform="translate(541.9434417829042 738.9121526972929) rotate(0 97.70057468382385 62.57227816829169)"><path d="M31.29 0 C73.21 -0.62, 115.52 0.2, 164.12 0 M31.29 0 C63.82 0.01, 97.43 -0.96, 164.12 0 M164.12 0 C185.47 1.59, 193.45 10.52, 195.4 31.29 M164.12 0 C185.56 2.06, 194.55 9.32, 195.4 31.29 M195.4 31.29 C195.94 54.18, 196.14 75.6, 195.4 93.86 M195.4 31.29 C194.85 54.64, 195.86 77.73, 195.4 93.86 M195.4 93.86 C194.23 114.47, 186.83 125.59, 164.12 125.14 M195.4 93.86 C196.39 112.53, 183.28 124.36, 164.12 125.14 M164.12 125.14 C133.61 125.91, 100.07 124.11, 31.29 125.14 M164.12 125.14 C129.78 127.02, 95.72 127.22, 31.29 125.14 M31.29 125.14 C10.16 124.14, 1.69 116.18, 0 93.86 M31.29 125.14 C8.45 123.13, 0.16 114.2, 0 93.86 M0 93.86 C0.06 73.12, 0.97 48.58, 0 31.29 M0 93.86 C0.95 81.17, 0.08 67.56, 0 31.29 M0 31.29 C0.5 9.06, 11.28 1.49, 31.29 0 M0 31.29 C1.14 8.95, 10.56 1.74, 31.29 0" stroke="#1e1e1e" stroke-width="1" fill="none"></path></g><g transform="translate(555.3023492914351 788.9844308655845) rotate(0 84.34166717529297 12.5)"><text x="84.34166717529297" y="0" font-family="Virgil, Segoe UI Emoji" font-size="20px" fill="#1e1e1e" text-anchor="middle" style="white-space: pre;" direction="ltr" dominant-baseline="text-before-edge">PagamentoDebito</text></g><g stroke-linecap="round" transform="translate(628.6664238056246 10) rotate(0 136.6710286307424 59.27900036996056)"><path d="M29.64 0 C98.48 -0.62, 170.68 -2.2, 243.7 0 M29.64 0 C107.01 -0.96, 183.35 -1.46, 243.7 0 M243.7 0 C265.05 0.98, 274.78 9.08, 273.34 29.64 M243.7 0 C263.1 -1.55, 271.53 10.34, 273.34 29.64 M273.34 29.64 C271.07 49.69, 273.1 70.43, 273.34 88.92 M273.34 29.64 C274.31 46.97, 274.34 63.87, 273.34 88.92 M273.34 88.92 C272.47 109.3, 264.03 119.92, 243.7 118.56 M273.34 88.92 C274.98 106.9, 261.2 116.45, 243.7 118.56 M243.7 118.56 C177.54 118.07, 114.82 117.99, 29.64 118.56 M243.7 118.56 C199.27 119.3, 156.43 120.29, 29.64 118.56 M29.64 118.56 C11.77 117.82, 0.25 108.51, 0 88.92 M29.64 118.56 C8.3 118.66, 1.12 108.85, 0 88.92 M0 88.92 C1.5 68.96, -2.14 50.2, 0 29.64 M0 88.92 C-0.51 74.62, 0.15 58.94, 0 29.64 M0 29.64 C-1.58 8.88, 9.95 1.58, 29.64 0 M0 29.64 C1.19 7.96, 7.89 -0.25, 29.64 0" stroke="#1e1e1e" stroke-width="1" fill="none"></path></g><g transform="translate(652.7291226634177 56.77900036996061) rotate(0 112.60832977294922 12.5)"><text x="112.60832977294922" y="0" font-family="Virgil, Segoe UI Emoji" font-size="20px" fill="#1e1e1e" text-anchor="middle" style="white-space: pre;" direction="ltr" dominant-baseline="text-before-edge">ProcessadorPagamento</text></g><g stroke-linecap="round" transform="translate(315.8050329641669 361.2829651553219) rotate(0 97.7005746838239 62.57227816829172)"><path d="M31.29 0 C83.03 0.86, 135.94 -1.15, 164.12 0 M31.29 0 C80.96 -0.6, 129.18 -0.92, 164.12 0 M164.12 0 C183.71 -1.89, 194 9.61, 195.4 31.29 M164.12 0 C186.96 1.75, 197.34 11.73, 195.4 31.29 M195.4 31.29 C196.87 47.08, 194.63 59.42, 195.4 93.86 M195.4 31.29 C194.57 50.53, 195.35 69.04, 195.4 93.86 M195.4 93.86 C195.51 114.82, 184.78 123.4, 164.12 125.14 M195.4 93.86 C193.8 114.85, 182.75 126.43, 164.12 125.14 M164.12 125.14 C135.67 125.57, 106.98 125.06, 31.29 125.14 M164.12 125.14 C131.57 125.09, 98.14 124.47, 31.29 125.14 M31.29 125.14 C9.64 123.5, 1.35 113.72, 0 93.86 M31.29 125.14 C11.87 123.72, 2.13 116.02, 0 93.86 M0 93.86 C-1.11 72.93, -1.98 52.61, 0 31.29 M0 93.86 C0.56 81.73, 0.85 68.63, 0 31.29 M0 31.29 C-0.64 11.76, 11.74 -0.98, 31.29 0 M0 31.29 C1.91 9.38, 8.22 2, 31.29 0" stroke="#1e1e1e" stroke-width="1" fill="none"></path></g><g transform="translate(332.31394199857675 398.85524332361365) rotate(0 81.19166564941406 25)"><text x="81.19166564941406" y="0" font-family="Virgil, Segoe UI Emoji" font-size="20px" fill="#1e1e1e" text-anchor="middle" style="white-space: pre;" direction="ltr" dominant-baseline="text-before-edge">&lt;&lt;Interface&gt;&gt;</text><text x="81.19166564941406" y="25" font-family="Virgil, Segoe UI Emoji" font-size="20px" fill="#1e1e1e" text-anchor="middle" style="white-space: pre;" direction="ltr" dominant-baseline="text-before-edge">FormaPagamento</text></g><g stroke-linecap="round"><g transform="translate(173.25650924541083 636.261190557067) rotate(308.10403514659157 123.08465851034026 -1.9032547581946346)"><path d="M0.71 0.34 C41.77 -0.53, 205.68 -3.44, 246.67 -4.15 M-0.38 -0.52 C40.54 -0.71, 204.9 -2.43, 245.99 -2.79" stroke="#000000" stroke-width="1" fill="none"></path></g></g><mask></mask><g stroke-linecap="round"><g transform="translate(372.6985714336281 520.1886996328823) rotate(308.10403514659157 -0.6020962588545444 15.43414856784051)"><path d="M0.23 -0.16 C0.01 4.95, -0.78 25.68, -0.99 30.81 M-0.32 -0.71 C-0.62 4.47, -1.14 26.18, -1.31 31.48" stroke="#000000" stroke-width="1" fill="none"></path></g></g><mask></mask><g stroke-linecap="round"><g transform="translate(358.0430728349419 510.2656269663334) rotate(308.10403514659157 15.68181307048178 8.316934330244578)"><path d="M0.47 -0.12 C5.67 2.62, 26.73 13.26, 31.71 16.1 M-0.74 -1.24 C4.29 1.69, 25.36 14.08, 30.95 17.36" stroke="#000000" stroke-width="1" fill="none"></path></g></g><mask></mask><g stroke-linecap="round"><g transform="translate(402.17786134017024 518.9639835259218) rotate(308.10403514659157 -14.675453993214944 7.760957972368544)"><path d="M0.35 -0.53 C-4.78 2.13, -25.3 13.31, -30.32 15.83 M-0.93 1.8 C-5.73 4.09, -23.15 11.6, -28.11 13.88" stroke="#000000" stroke-width="1" fill="none"></path></g></g><mask></mask><g stroke-linecap="round"><g transform="translate(411.65899483373767 659.3795740668777) rotate(238.3835493133572 130.75246895732818 -34.480823675697906)"><path d="M-0.29 0.3 C43.37 -11.4, 217.24 -57.34, 260.81 -69.03 M1.75 -0.59 C45.9 -11.58, 220.09 -56.13, 263.16 -67.53" stroke="#000000" stroke-width="1" fill="none"></path></g></g><mask></mask><g stroke-linecap="round"><g transform="translate(443.10482753289637 519.0152675712043) rotate(238.3835493133572 -0.47579226217180803 12.19646917547459)"><path d="M-0.32 -0.03 C-0.48 3.94, -0.96 19.96, -1.11 23.98 M0.52 -0.52 C0.28 3.5, -1.26 20.3, -1.63 24.47" stroke="#000000" stroke-width="1" fill="none"></path></g></g><mask></mask><g stroke-linecap="round"><g transform="translate(418.2707511530267 519.0379376886374) rotate(238.3835493133572 12.392180163939315 6.572259736091638)"><path d="M-0.16 -0.41 C3.98 1.73, 20.37 10.58, 24.52 12.83 M0.75 0.57 C4.83 2.78, 20.02 11.18, 23.96 13.37" stroke="#000000" stroke-width="1" fill="none"></path></g></g><mask></mask><g stroke-linecap="round"><g transform="translate(452.217045927556 510.760145435743) rotate(238.3835493133572 -11.596928815191859 6.1329126298147685)"><path d="M-0.26 -0.31 C-4.11 1.8, -19.49 10.08, -23.24 12.25 M0.6 0.72 C-3.3 2.96, -19.79 11.09, -23.7 12.94" stroke="#000000" stroke-width="1" fill="none"></path></g></g><mask></mask><g transform="translate(212.61566194979082 603.8877629657161) rotate(306.1965748844747 50.34166717529297 12.5)"><text x="0" y="0" font-family="Virgil, Segoe UI Emoji" font-size="20px" fill="#1e1e1e" text-anchor="start" style="white-space: pre;" direction="ltr" dominant-baseline="text-before-edge">implementa</text></g><g transform="translate(508.0681635992679 590.2900036996058) rotate(46.6365770416167 50.341667175293026 12.5)"><text x="0" y="0" font-family="Virgil, Segoe UI Emoji" font-size="20px" fill="#1e1e1e" text-anchor="start" style="white-space: pre;" direction="ltr" dominant-baseline="text-before-edge">implementa</text></g><g stroke-linecap="round" transform="translate(988.73146308983 382.1403912114192) rotate(0 137.21990826379772 57.0834818377398)"><path d="M28.54 0 C116.26 -1.68, 201.54 -1.67, 245.9 0 M28.54 0 C89.24 -0.71, 150.07 -0.95, 245.9 0 M245.9 0 C266.4 -0.84, 276.06 8.32, 274.44 28.54 M245.9 0 C266.87 -1.14, 276.53 9.4, 274.44 28.54 M274.44 28.54 C276.29 49.44, 275.69 71.38, 274.44 85.63 M274.44 28.54 C274.02 42.67, 274.22 56.99, 274.44 85.63 M274.44 85.63 C275.8 106.15, 265.92 112.37, 245.9 114.17 M274.44 85.63 C275.63 104.63, 264.41 114.87, 245.9 114.17 M245.9 114.17 C181.94 112.86, 119.06 114.25, 28.54 114.17 M245.9 114.17 C168.32 115.18, 90.97 116.28, 28.54 114.17 M28.54 114.17 C10.55 115.73, 1.59 103.64, 0 85.63 M28.54 114.17 C8.93 112.72, -0.69 106.47, 0 85.63 M0 85.63 C-1.92 67.03, 0.81 47.2, 0 28.54 M0 85.63 C0.1 64.6, -0.39 43.4, 0 28.54 M0 28.54 C1.64 11.04, 9.68 -1.25, 28.54 0 M0 28.54 C0.42 8.8, 7.3 0.62, 28.54 0" stroke="#1e1e1e" stroke-width="1" fill="none"></path></g><g transform="translate(1007.1513683018698 414.22387304915907) rotate(0 118.80000305175781 25)"><text x="118.80000305175781" y="0" font-family="Virgil, Segoe UI Emoji" font-size="20px" fill="#1e1e1e" text-anchor="middle" style="white-space: pre;" direction="ltr" dominant-baseline="text-before-edge">&lt;&lt;Interface&gt;&gt;</text><text x="118.80000305175781" y="25" font-family="Virgil, Segoe UI Emoji" font-size="20px" fill="#1e1e1e" text-anchor="middle" style="white-space: pre;" direction="ltr" dominant-baseline="text-before-edge">FormaPagamentoFactory</text></g><g stroke-linecap="round" transform="translate(977.7538704287267 921.1401908716161) rotate(0 149.84413982406716 55.98572257162948)"><path d="M27.99 0 C76.32 -0.47, 125.44 -0.98, 271.7 0 M27.99 0 C98.15 0.01, 166.68 0.06, 271.7 0 M271.7 0 C288.68 -0.55, 300.08 10.6, 299.69 27.99 M271.7 0 C290.68 1.3, 298.53 11.07, 299.69 27.99 M299.69 27.99 C302 47.85, 300.13 68.02, 299.69 83.98 M299.69 27.99 C300.2 43.06, 299.58 60.46, 299.69 83.98 M299.69 83.98 C299.07 101.14, 290.41 112.95, 271.7 111.97 M299.69 83.98 C298.31 101.85, 292.04 112.81, 271.7 111.97 M271.7 111.97 C201.6 112.44, 133.27 113.44, 27.99 111.97 M271.7 111.97 C199.21 112.08, 128.13 112.58, 27.99 111.97 M27.99 111.97 C10.32 112.83, 1.44 104.24, 0 83.98 M27.99 111.97 C9.72 110.92, 1.09 101.11, 0 83.98 M0 83.98 C-0.78 70.96, 0.97 61.48, 0 27.99 M0 83.98 C0.33 68.47, -0.12 52.3, 0 27.99 M0 27.99 C1.02 9.83, 11.28 -1.38, 27.99 0 M0 27.99 C0.79 10.01, 7.67 -0.85, 27.99 0" stroke="#1e1e1e" stroke-width="1" fill="none"></path></g><g transform="translate(989.4480163563094 964.6259134432457) rotate(0 138.14999389648438 12.5)"><text x="138.14999389648438" y="0" font-family="Virgil, Segoe UI Emoji" font-size="20px" fill="#1e1e1e" text-anchor="middle" style="white-space: pre;" direction="ltr" dominant-baseline="text-before-edge">FormaPagamentoFactoryImpl</text></g><g stroke-linecap="round"><g transform="translate(960.0602651556908 728.609474395615) rotate(268.06684938577564 171.4422173229441 -4.002205335436486)"><path d="M1.05 1.07 C58.3 -0.23, 286.39 -6.01, 343.4 -7.55 M0.14 0.58 C57.29 -1.1, 285.66 -8.18, 342.73 -9.43" stroke="#000000" stroke-width="1" fill="none"></path></g></g><mask></mask><g stroke-linecap="round"><g transform="translate(1122.7660342735876 541.5486379822926) rotate(268.06684938577564 -0.42753908988231615 10.95954630968356)"><path d="M0.24 0.21 C0.04 3.77, -0.48 18.17, -0.73 21.85 M-0.3 -0.16 C-0.61 3.72, -1.11 18.93, -1.1 22.51" stroke="#000000" stroke-width="1" fill="none"></path></g></g><mask></mask><g stroke-linecap="round"><g transform="translate(1104.0632933292272 536.6394669642089) rotate(268.06684938577564 11.135408980308398 5.9057243453544)"><path d="M0.12 -0.07 C3.72 1.92, 18.1 10.16, 21.82 12.14 M-0.48 -0.58 C3.27 1.23, 19.04 9.17, 22.82 11.35" stroke="#000000" stroke-width="1" fill="none"></path></g></g><mask></mask><g stroke-linecap="round"><g transform="translate(1137.3313063724684 534.9339243121108) rotate(268.06684938577564 -10.420809217127612 5.510934272261039)"><path d="M-0.45 0.33 C-3.92 2.19, -17.23 9.26, -20.66 11.06 M0.32 0.02 C-3.21 1.98, -17.36 9.82, -21 11.77" stroke="#000000" stroke-width="1" fill="none"></path></g></g><mask></mask><g transform="translate(1141.4752601449577 623.2227816829172) rotate(358.02506598911793 50.34166717529297 12.5)"><text x="0" y="0" font-family="Virgil, Segoe UI Emoji" font-size="20px" fill="#1e1e1e" text-anchor="start" style="white-space: pre;" direction="ltr" dominant-baseline="text-before-edge">implementa</text></g><g stroke-linecap="round"><g transform="translate(687.6797438675064 134.04679707047302) rotate(0 -134.36591151649702 105.93376917965179)"><path d="M0.19 0.71 C-44.61 36.1, -223.24 176.6, -267.86 211.64 M-1.18 0.04 C-46.14 35.67, -223.93 177.77, -268.35 213.07" stroke="#1e1e1e" stroke-width="1" fill="none"></path></g><g transform="translate(687.6797438675064 134.04679707047302) rotate(0 -134.36591151649702 105.93376917965179)"><path d="M-255.31 191.74 C-259.18 201.29, -265.68 209.86, -268.35 213.07 M-255.31 191.74 C-258.32 196.28, -261.67 201.15, -268.35 213.07" stroke="#1e1e1e" stroke-width="1" fill="none"></path></g><g transform="translate(687.6797438675064 134.04679707047302) rotate(0 -134.36591151649702 105.93376917965179)"><path d="M-244.65 205.11 C-252.49 209.61, -263.03 213.12, -268.35 213.07 M-244.65 205.11 C-250.13 206.65, -255.87 208.5, -268.35 213.07" stroke="#1e1e1e" stroke-width="1" fill="none"></path></g></g><mask></mask><g stroke-linecap="round"><g transform="translate(804.1019804406385 142.82887119935617) rotate(0 127.6971136013882 113.61808404242436)"><path d="M0.8 -0.83 C43.23 37.27, 213.22 189.79, 255.6 227.6 M-0.24 1.36 C41.96 39.16, 212.37 188.11, 254.75 225.68" stroke="#1e1e1e" stroke-width="1" fill="none"></path></g><g transform="translate(804.1019804406385 142.82887119935617) rotate(0 127.6971136013882 113.61808404242436)"><path d="M231.47 216.58 C238.99 220.27, 249.96 222.84, 254.75 225.68 M231.47 216.58 C235.34 218.41, 240.04 219.42, 254.75 225.68" stroke="#1e1e1e" stroke-width="1" fill="none"></path></g><g transform="translate(804.1019804406385 142.82887119935617) rotate(0 127.6971136013882 113.61808404242436)"><path d="M242.76 203.74 C245.83 212.45, 252.44 219.97, 254.75 225.68 M242.76 203.74 C244.42 208.11, 246.83 211.72, 254.75 225.68" stroke="#1e1e1e" stroke-width="1" fill="none"></path></g></g><mask></mask><g transform="translate(471.6868487518408 198.81459377098554) rotate(323.3519487922683 70.64167022705072 12.5)"><text x="0" y="0" font-family="Virgil, Segoe UI Emoji" font-size="20px" fill="#1e1e1e" text-anchor="start" style="white-space: pre;" direction="ltr" dominant-baseline="text-before-edge">faz referencia</text></g><g transform="translate(889.5480519439097 222.54064955262803) rotate(49.53777250790657 70.64167022705078 12.5)"><text x="0" y="0" font-family="Virgil, Segoe UI Emoji" font-size="20px" fill="#1e1e1e" text-anchor="start" style="white-space: pre;" direction="ltr" dominant-baseline="text-before-edge">faz referencia</text></g><g stroke-linecap="round"><g transform="translate(975.5583518965057 942.386214272118) rotate(0 -113.8812321453222 -37.485620176728276)"><path d="M0.54 0.1 C-37.22 -12.3, -189.62 -61.95, -227.73 -74.44 M-0.64 -0.89 C-38.45 -13.65, -190.59 -64.19, -228.66 -76.29" stroke="#1e1e1e" stroke-width="1" fill="none"></path></g><g transform="translate(975.5583518965057 942.386214272118) rotate(0 -113.8812321453222 -37.485620176728276)"><path d="M-203.67 -77.13 C-208.54 -76.8, -212.87 -77.27, -228.66 -76.29 M-203.67 -77.13 C-212.01 -76.76, -219.21 -77.15, -228.66 -76.29" stroke="#1e1e1e" stroke-width="1" fill="none"></path></g><g transform="translate(975.5583518965057 942.386214272118) rotate(0 -113.8812321453222 -37.485620176728276)"><path d="M-208.98 -60.88 C-212.77 -63.84, -216.04 -67.59, -228.66 -76.29 M-208.98 -60.88 C-215.83 -65.55, -221.4 -70.94, -228.66 -76.29" stroke="#1e1e1e" stroke-width="1" fill="none"></path></g></g><mask></mask><g stroke-linecap="round"><g transform="translate(972.2650740981742 1012.2542099587779) rotate(0 -316.1546686397896 -63.670037434402104)"><path d="M-0.74 0.9 C-106.31 -20.2, -527.21 -105.37, -632.64 -126.88 M1.07 0.33 C-104.75 -21.11, -528.43 -107.49, -633.76 -128.76" stroke="#1e1e1e" stroke-width="1" fill="none"></path></g><g transform="translate(972.2650740981742 1012.2542099587779) rotate(0 -316.1546686397896 -63.670037434402104)"><path d="M-609.03 -132.47 C-616.49 -131.82, -626.19 -131.55, -633.76 -128.76 M-609.03 -132.47 C-614.23 -131.25, -619.6 -131.44, -633.76 -128.76" stroke="#1e1e1e" stroke-width="1" fill="none"></path></g><g transform="translate(972.2650740981742 1012.2542099587779) rotate(0 -316.1546686397896 -63.670037434402104)"><path d="M-612.44 -115.71 C-618.62 -121.12, -627.09 -126.91, -633.76 -128.76 M-612.44 -115.71 C-616.89 -118.33, -621.48 -122.37, -633.76 -128.76" stroke="#1e1e1e" stroke-width="1" fill="none"></path></g></g><mask></mask><g transform="translate(843.8272399632599 870.6432646305386) rotate(18.400918380844086 18.174999237060547 12.5)"><text x="0" y="0" font-family="Virgil, Segoe UI Emoji" font-size="20px" fill="#1e1e1e" text-anchor="start" style="white-space: pre;" direction="ltr" dominant-baseline="text-before-edge">cria</text></g><g transform="translate(618.1757394313377 922.9110613310511) rotate(10.95406264339793 18.174999237060547 12.5)"><text x="0" y="0" font-family="Virgil, Segoe UI Emoji" font-size="20px" fill="#1e1e1e" text-anchor="start" style="white-space: pre;" direction="ltr" dominant-baseline="text-before-edge">cria</text></g><g stroke-linecap="round"><g transform="translate(970.8272914475615 440.00111502120416) rotate(0 -220.29257375560252 -4.391037064441605)"><path d="M0.76 -0.49 C-72.86 -2.09, -367.3 -8.65, -441.04 -9.89 M-0.3 -1.8 C-74.17 -3.25, -369.06 -7.6, -442.22 -8.93" stroke="#1e1e1e" stroke-width="1" fill="none"></path></g><g transform="translate(970.8272914475615 440.00111502120416) rotate(0 -220.29257375560252 -4.391037064441605)"><path d="M-418.6 -17.1 C-427.89 -14.78, -437.36 -12.87, -442.22 -8.93 M-418.6 -17.1 C-426.5 -13.65, -436.47 -11.19, -442.22 -8.93" stroke="#1e1e1e" stroke-width="1" fill="none"></path></g><g transform="translate(970.8272914475615 440.00111502120416) rotate(0 -220.29257375560252 -4.391037064441605)"><path d="M-418.87 0 C-428.02 -3.8, -437.39 -8, -442.22 -8.93 M-418.87 0 C-426.66 -2.91, -436.53 -6.82, -442.22 -8.93" stroke="#1e1e1e" stroke-width="1" fill="none"></path></g></g><mask></mask><g transform="translate(679.8760321168265 392.69333579973716) rotate(0 70.64167022705078 12.5)"><text x="0" y="0" font-family="Virgil, Segoe UI Emoji" font-size="20px" fill="#1e1e1e" text-anchor="start" style="white-space: pre;" direction="ltr" dominant-baseline="text-before-edge">faz referencia</text></g><g stroke-linecap="round"><g transform="translate(11.725716251591166 701.5883376495401) rotate(0 736.5964675600657 -0.5488796330552077)"><path d="M-0.17 0.39 C245.3 0.36, 1228.02 0.19, 1473.45 -0.13 M-1.73 -0.45 C243.57 -0.8, 1226.54 -1.74, 1472.64 -1.74" stroke="#e03131" stroke-width="1" fill="none"></path></g></g><mask></mask><g transform="translate(1156.6886308047185 714.7614488428644) rotate(0 188.5500030517578 12.5)"><text x="0" y="0" font-family="Virgil, Segoe UI Emoji" font-size="20px" fill="#e03131" text-anchor="start" style="white-space: pre;" direction="ltr" dominant-baseline="text-before-edge">Separação entre concreto e abstrato</text></g></svg>