<svg version="1.1" xmlns="http://www.w3.org/2000/svg" viewBox="0 0 716.1088639269855 552.6874874887988" width="716.1088639269855" height="552.6874874887988" filter="invert(93%) hue-rotate(180deg)">
  <!-- svg-source:excalidraw -->
  
  <defs>
    <style class="style-fonts">
      @font-face {
        font-family: "Virgil";
        src: url("https://excalidraw.com/Virgil.woff2");
      }
      @font-face {
        font-family: "Cascadia";
        src: url("https://excalidraw.com/Cascadia.woff2");
      }
    </style>
    
  </defs>
  <g stroke-linecap="round" transform="translate(182.39690930161862 10) rotate(0 19.639755988185698 15.230455639119327)"><path d="M27.7 0.99 C31.51 1.91, 35.2 4.7, 36.97 7.52 C38.73 10.35, 39.07 14.56, 38.28 17.96 C37.5 21.36, 35.44 25.76, 32.28 27.92 C29.12 30.07, 23.57 31.04, 19.31 30.89 C15.05 30.73, 9.99 29.22, 6.72 26.97 C3.45 24.73, 0.26 20.82, -0.31 17.4 C-0.87 13.98, 1.13 9.14, 3.31 6.46 C5.49 3.78, 8.75 2.27, 12.8 1.32 C16.85 0.37, 24.92 0.61, 27.6 0.77 C30.27 0.94, 29.06 2.06, 28.83 2.33 M14.86 -1.24 C18.36 -1.88, 24.36 1.5, 28.03 3.24 C31.7 4.97, 35 6.45, 36.88 9.2 C38.77 11.95, 40.41 16.48, 39.33 19.72 C38.25 22.96, 34.13 26.94, 30.4 28.64 C26.66 30.34, 21.18 30.53, 16.91 29.92 C12.63 29.3, 7.79 27.43, 4.74 24.96 C1.69 22.48, -1.21 18.24, -1.37 15.08 C-1.54 11.92, 0.95 8.39, 3.76 5.98 C6.56 3.57, 13.22 1.43, 15.46 0.64 C17.7 -0.15, 17.26 0.96, 17.2 1.26" stroke="#6741d9" stroke-width="1" fill="none"></path></g><g stroke-linecap="round"><g transform="translate(202.21681930858574 41.71774949399298) rotate(0 1.0204122667956312 45.48258703409584)"><path d="M0.89 0.19 C1.36 15.66, 1.9 76.64, 2.14 91.73 M-0.1 -0.76 C0.25 14.5, 0.77 74.72, 1.05 90.2" stroke="#6741d9" stroke-width="1" fill="none"></path></g></g><mask></mask><g stroke-linecap="round"><g transform="translate(159.97292977451787 59.732123236834695) rotate(0 43.8495291716319 -0.052035994945981656)"><path d="M-0.27 1.14 C14.24 0.9, 73.33 -0.7, 87.97 -1.24 M1.79 0.69 C16.06 0.65, 72.87 0.68, 87 0.36" stroke="#6741d9" stroke-width="1" fill="none"></path></g></g><mask></mask><g stroke-linecap="round"><g transform="translate(167.8609403327515 165.32857688877675) rotate(0 16.76128567195508 -16.825567596689382)"><path d="M-0.05 0.13 C5.84 -5.69, 29.18 -28.32, 35.06 -33.78 M-1.54 -0.85 C4.18 -6.02, 27.9 -26.98, 33.87 -32.63" stroke="#6741d9" stroke-width="1" fill="none"></path></g></g><mask></mask><g stroke-linecap="round"><g transform="translate(205.5226815925099 131.8430939239115) rotate(0 15.85718106426225 15.076962328838363)"><path d="M-0.45 -0.74 C4.92 4.39, 26.52 25.67, 32.17 30.9 M1.51 1.48 C6.7 6.23, 25.79 23.91, 31.07 28.99" stroke="#6741d9" stroke-width="1" fill="none"></path></g></g><mask></mask><g stroke-linecap="round" transform="translate(33.35352269035559 185.12949415004823) rotate(0 19.63975598818567 15.230455639119327)"><path d="M13.59 0.79 C17.54 -0.43, 23.43 -1.17, 27.24 0.08 C31.05 1.33, 34.43 5.28, 36.46 8.29 C38.49 11.29, 40.03 14.92, 39.4 18.11 C38.77 21.3, 36.14 25.24, 32.69 27.41 C29.24 29.58, 22.85 31.36, 18.69 31.14 C14.53 30.92, 10.82 28.39, 7.74 26.06 C4.66 23.73, 0.92 20.25, 0.21 17.17 C-0.51 14.1, 0.42 10.55, 3.46 7.63 C6.49 4.71, 15.15 0.82, 18.41 -0.35 C21.66 -1.51, 23.05 0.4, 22.98 0.64 M17.08 -0.88 C20.97 -1.28, 27.14 1.01, 30.58 3.03 C34.01 5.04, 36.6 8.35, 37.7 11.2 C38.79 14.05, 38.38 17.13, 37.15 20.12 C35.93 23.1, 33.79 27.66, 30.33 29.11 C26.87 30.56, 20.63 29.74, 16.41 28.81 C12.18 27.89, 7.84 25.87, 5.01 23.58 C2.18 21.29, -0.68 17.87, -0.58 15.06 C-0.47 12.26, 2.64 9.26, 5.62 6.74 C8.6 4.22, 15.69 0.76, 17.31 -0.04 C18.93 -0.84, 15.63 1.77, 15.35 1.96" stroke="#6741d9" stroke-width="1" fill="none"></path></g><g stroke-linecap="round"><g transform="translate(53.17343269732271 216.84724364404133) rotate(0 1.4567799928143188 44.93961084209269)"><path d="M-0.8 -1.13 C-0.62 13.86, 0.96 75.61, 1.49 91.01 M0.99 0.89 C1.5 16.02, 3.61 74.38, 3.71 89.11" stroke="#6741d9" stroke-width="1" fill="none"></path></g></g><mask></mask><g stroke-linecap="round"><g transform="translate(10.929543163254834 234.86161738688315) rotate(0 43.520161989228086 -1.0158961607481274)"><path d="M-0.93 0.42 C13.86 0.5, 73.33 -0.32, 87.97 -0.69 M0.78 -0.4 C15.48 -0.58, 72.25 -2.41, 86.99 -2.46" stroke="#6741d9" stroke-width="1" fill="none"></path></g></g><mask></mask><g stroke-linecap="round"><g transform="translate(18.81755372148848 340.458071038825) rotate(0 17.4934092132562 -16.391889412984767)"><path d="M-0.05 0.68 C5.83 -4.97, 28.38 -27.94, 34.4 -33.46 M-1.54 -0.01 C4.78 -5.53, 30.34 -26.4, 36.53 -32.15" stroke="#6741d9" stroke-width="1" fill="none"></path></g></g><mask></mask><g stroke-linecap="round"><g transform="translate(56.47929498124688 306.97258807395974) rotate(0 15.936786669715474 14.68501637390466)"><path d="M-1.11 -0.42 C4.39 4.64, 27.4 25.77, 32.99 31.06 M0.5 -1.69 C5.9 2.96, 27.13 24.06, 32.32 29.24" stroke="#6741d9" stroke-width="1" fill="none"></path></g></g><mask></mask><g stroke-linecap="round" transform="translate(195.5313355505166 349.68340407094) rotate(0 19.639755988185698 15.230455639119327)"><path d="M18.66 -0.04 C22.54 -0.18, 28.09 1.03, 31.42 2.96 C34.74 4.89, 37.59 8.09, 38.63 11.56 C39.66 15.03, 39.76 20.63, 37.63 23.79 C35.5 26.95, 29.79 29.56, 25.83 30.52 C21.87 31.48, 17.83 30.67, 13.89 29.54 C9.95 28.41, 4.57 26.51, 2.21 23.74 C-0.15 20.98, -0.96 16.37, -0.27 12.96 C0.41 9.55, 2.58 5.33, 6.33 3.27 C10.08 1.22, 19.45 1.12, 22.23 0.62 C25 0.12, 22.98 0.01, 22.99 0.28 M17.21 1.33 C20.72 0.92, 26.34 2.07, 29.72 3.78 C33.09 5.49, 36.29 8.67, 37.47 11.6 C38.65 14.54, 38.2 18.28, 36.83 21.39 C35.45 24.49, 33.17 29.03, 29.2 30.22 C25.22 31.4, 17.49 29.59, 12.96 28.5 C8.43 27.4, 4.17 26.25, 2.03 23.64 C-0.11 21.04, -0.71 16.15, 0.11 12.85 C0.93 9.55, 3.84 5.95, 6.95 3.85 C10.06 1.76, 16.72 0.71, 18.78 0.28 C20.85 -0.15, 19.32 0.91, 19.32 1.27" stroke="#6741d9" stroke-width="1" fill="none"></path></g><g stroke-linecap="round"><g transform="translate(215.3512455574837 381.40115356493334) rotate(0 0.9609007807366083 44.583643477464875)"><path d="M-0.01 -0.13 C0.17 14.85, 0.88 74.51, 1.28 89.47 M-1.47 -1.25 C-0.96 13.88, 2.88 75.14, 3.39 90.42" stroke="#6741d9" stroke-width="1" fill="none"></path></g></g><mask></mask><g stroke-linecap="round"><g transform="translate(173.10735602341583 399.41552730777494) rotate(0 43.41810489957152 -0.7200123303169335)"><path d="M-1.14 -1.12 C13.52 -1.49, 73.23 -2.23, 87.98 -2.35 M0.46 0.91 C14.97 0.67, 72.71 -1.05, 87 -1.32" stroke="#6741d9" stroke-width="1" fill="none"></path></g></g><mask></mask><g stroke-linecap="round"><g transform="translate(180.99536658164948 505.01198095971677) rotate(0 17.816687904298362 -16.16272173948073)"><path d="M-0.05 -0.97 C5.94 -6.36, 29.09 -28.3, 34.82 -33.46 M-1.53 1.13 C4.95 -3.99, 30.81 -26.34, 37.17 -32.14" stroke="#6741d9" stroke-width="1" fill="none"></path></g></g><mask></mask><g stroke-linecap="round"><g transform="translate(218.65710784140788 471.5264979948515) rotate(0 16.33055066109563 14.977787928484645)"><path d="M-0.7 -0.42 C4.52 5.02, 25.55 26.6, 31.27 31.64 M1.14 -1.68 C6.71 3.54, 27.97 24.71, 33.36 30.12" stroke="#6741d9" stroke-width="1" fill="none"></path></g></g><mask></mask><g stroke-linecap="round" transform="translate(433.70346801572396 147.97951019387688) rotate(0 135.06076049804682 74.70797729492188)"><path d="M-1.54 -0.27 C56.32 2.3, 113.17 2.3, 270.87 0.29 M-0.55 0.47 C97.14 2.54, 193.44 1.79, 269.58 -0.36 M269.51 -1.29 C269.35 55.48, 269.79 113.5, 270.97 147.8 M270.57 0.73 C271.02 35.54, 270.53 68.91, 269.88 149.85 M270.33 148.62 C170.54 147.07, 73.77 147.4, -1.24 150.93 M270.9 148.8 C180.47 149.38, 89.98 150.18, 0.6 150.12 M1.2 149.39 C-2.03 106.9, 0.86 63.94, 1.48 1.46 M0.12 148.57 C1.59 117.85, 2.07 88.37, -0.21 -0.08" stroke="#000000" stroke-width="1" fill="none"></path></g><g transform="translate(475.555892637306 172.68748748879875) rotate(0 93.20833587646479 50)"><text x="93.20833587646484" y="0" font-family="Virgil, Segoe UI Emoji" font-size="20px" fill="#1971c2" text-anchor="middle" style="white-space: pre;" direction="ltr" dominant-baseline="text-before-edge"></text><text x="93.20833587646484" y="25" font-family="Virgil, Segoe UI Emoji" font-size="20px" fill="#1971c2" text-anchor="middle" style="white-space: pre;" direction="ltr" dominant-baseline="text-before-edge">+ imprimirCateirinha</text><text x="93.20833587646484" y="50" font-family="Virgil, Segoe UI Emoji" font-size="20px" fill="#1971c2" text-anchor="middle" style="white-space: pre;" direction="ltr" dominant-baseline="text-before-edge">+ cancelarApolice</text><text x="93.20833587646484" y="75" font-family="Virgil, Segoe UI Emoji" font-size="20px" fill="#1971c2" text-anchor="middle" style="white-space: pre;" direction="ltr" dominant-baseline="text-before-edge">+salvarApolice</text></g><g stroke-linecap="round"><g transform="translate(436.1288220196302 186.53612030129875) rotate(0 134.10331042796378 -1.6445783975720474)"><path d="M-0.21 -0.01 C44.93 -0.04, 224.95 -1.16, 269.98 -1.35 M-1.77 -1.07 C43.34 -1.37, 224.13 -2.92, 269.34 -3.27" stroke="#000000" stroke-width="1" fill="none"></path></g></g><mask></mask><g transform="translate(540.6275180126439 156.68748748879875) rotate(0 32.34166717529297 12.5)"><text x="0" y="0" font-family="Virgil, Segoe UI Emoji" font-size="20px" fill="#1971c2" text-anchor="start" style="white-space: pre;" direction="ltr" dominant-baseline="text-before-edge">Apolice</text></g><g stroke-linecap="round"><g transform="translate(244.62751801264392 102.68748748879875) rotate(0 113.28543110080062 54.044542663982156)"><path d="M-1.04 -0.63 C36.92 17.13, 189.71 89.03, 227.61 107.12 M0.61 1.65 C38.49 19.58, 189.54 91.31, 226.99 108.72" stroke="#1971c2" stroke-width="1" fill="none"></path></g><g transform="translate(244.62751801264392 102.68748748879875) rotate(0 113.28543110080062 54.044542663982156)"><path d="M196.06 107.02 C205.83 106.04, 215.7 108.85, 226.04 108.1 M196.2 105.02 C204.1 107.38, 212.16 106.75, 227.81 108.24" stroke="#1971c2" stroke-width="1" fill="none"></path></g><g transform="translate(244.62751801264392 102.68748748879875) rotate(0 113.28543110080062 54.044542663982156)"><path d="M204.8 88.46 C212.17 92.68, 219.55 100.79, 226.04 108.1 M204.94 86.45 C210.63 93.77, 216.38 98.07, 227.81 108.24" stroke="#1971c2" stroke-width="1" fill="none"></path></g></g><mask></mask><g stroke-linecap="round"><g transform="translate(60.62751801264392 264.68748748879875) rotate(0 209.32264305964108 -14.35686806336048)"><path d="M-0.61 -0.11 C68.86 -4.73, 347.44 -22.1, 417.05 -26.66 M1.27 -1.22 C71.09 -5.69, 349.57 -24.41, 419.26 -28.6" stroke="#1971c2" stroke-width="1" fill="none"></path></g><g transform="translate(60.62751801264392 264.68748748879875) rotate(0 209.32264305964108 -14.35686806336048)"><path d="M391.6 -18.15 C401.02 -21.94, 408.45 -22.86, 417.88 -28.52 M391.37 -15.94 C401.09 -20.97, 411.49 -25.77, 418.93 -29.31" stroke="#1971c2" stroke-width="1" fill="none"></path></g><g transform="translate(60.62751801264392 264.68748748879875) rotate(0 209.32264305964108 -14.35686806336048)"><path d="M390.28 -38.63 C400.31 -35.87, 408.16 -30.25, 417.88 -28.52 M390.06 -36.42 C400.17 -34.46, 411.02 -32.27, 418.93 -29.31" stroke="#1971c2" stroke-width="1" fill="none"></path></g></g><mask></mask><g stroke-linecap="round"><g transform="translate(249.62751801264392 427.68748748879875) rotate(0 120.73768687278033 -80.69489114098252)"><path d="M0.88 -0.11 C41 -26.87, 201.53 -134.46, 241.59 -161.28 M-0.11 -1.22 C39.81 -27.73, 200.83 -133.47, 240.95 -159.89" stroke="#1971c2" stroke-width="1" fill="none"></path></g><g transform="translate(249.62751801264392 427.68748748879875) rotate(0 120.73768687278033 -80.69489114098252)"><path d="M222.84 -134.85 C229.45 -144.62, 236.62 -153.67, 241.3 -160.47 M222.97 -136.61 C227.08 -141.56, 231.97 -147.15, 240.35 -159.86" stroke="#1971c2" stroke-width="1" fill="none"></path></g><g transform="translate(249.62751801264392 427.68748748879875) rotate(0 120.73768687278033 -80.69489114098252)"><path d="M211.57 -151.99 C222.31 -155.4, 233.72 -158, 241.3 -160.47 M211.69 -153.76 C218.55 -154.64, 226.08 -156.2, 240.35 -159.86" stroke="#1971c2" stroke-width="1" fill="none"></path></g></g><mask></mask><g transform="translate(168.62751801264392 168.68748748879875) rotate(0 32.516666412353516 12.5)"><text x="0" y="0" font-family="Virgil, Segoe UI Emoji" font-size="20px" fill="#1971c2" text-anchor="start" style="white-space: pre;" direction="ltr" dominant-baseline="text-before-edge">Cliente</text></g><g transform="translate(19.627518012643918 353.68748748879875) rotate(0 35.900001525878906 12.5)"><text x="0" y="0" font-family="Virgil, Segoe UI Emoji" font-size="20px" fill="#1971c2" text-anchor="start" style="white-space: pre;" direction="ltr" dominant-baseline="text-before-edge">Usuário</text></g><g transform="translate(198.62751801264392 517.6874874887988) rotate(0 21.625 12.5)"><text x="0" y="0" font-family="Virgil, Segoe UI Emoji" font-size="20px" fill="#1971c2" text-anchor="start" style="white-space: pre;" direction="ltr" dominant-baseline="text-before-edge">DBA</text></g></svg>