<svg version="1.1" xmlns="http://www.w3.org/2000/svg" viewBox="0 0 700.6107449884373 340.5457057042312" width="700.6107449884373" height="340.5457057042312" filter="invert(93%) hue-rotate(180deg)">
  <!-- svg-source:excalidraw -->
  
  <defs>
    <style class="style-fonts">
      @font-face {
        font-family: "Virgil";
        src: url("https://excalidraw.com/Virgil.woff2");
      }
      @font-face {
        font-family: "Cascadia";
        src: url("https://excalidraw.com/Cascadia.woff2");
      }
      @font-face {
        font-family: "Assistant";
        src: url("https://excalidraw.com/Assistant-Regular.woff2");
      }
    </style>
    
  </defs>
  <g stroke-linecap="round" transform="translate(15.48879633055276 10) rotate(0 97.7005746838239 62.57227816829172)"><path d="M31.29 0 C71.64 -0.46, 113.58 -1.44, 164.12 0 M31.29 0 C82.14 0.25, 133.6 0.14, 164.12 0 M164.12 0 C183.44 0.03, 195.46 11.07, 195.4 31.29 M164.12 0 C184.13 -1.02, 193.35 12.25, 195.4 31.29 M195.4 31.29 C196.26 43.53, 195.18 59.41, 195.4 93.86 M195.4 31.29 C196.3 50.77, 194.82 70.46, 195.4 93.86 M195.4 93.86 C196.48 113.82, 183.7 126.35, 164.12 125.14 M195.4 93.86 C195.94 114.37, 183.1 123.25, 164.12 125.14 M164.12 125.14 C113.91 125.85, 61.19 125.58, 31.29 125.14 M164.12 125.14 C124.76 124.62, 83.99 125.48, 31.29 125.14 M31.29 125.14 C10.11 123.86, 0.8 114.7, 0 93.86 M31.29 125.14 C11.54 126.15, -1.35 114.92, 0 93.86 M0 93.86 C-0.58 75.67, 0.55 57.56, 0 31.29 M0 93.86 C0.8 77.85, 0.19 62.05, 0 31.29 M0 31.29 C1.39 9.47, 11.48 0.54, 31.29 0 M0 31.29 C-2.22 11.29, 8.47 -1.37, 31.29 0" stroke="#1e1e1e" stroke-width="1" fill="none"></path></g><g transform="translate(25.29770078732588 60.072278168291746) rotate(0 87.89167022705072 12.5)"><text x="87.89167022705078" y="0" font-family="Virgil, Segoe UI Emoji" font-size="20px" fill="#1e1e1e" text-anchor="middle" style="white-space: pre;" direction="ltr" dominant-baseline="text-before-edge">PagamentoCredito</text></g><g stroke-linecap="round" transform="translate(10 205.4011493676477) rotate(0 97.7005746838239 62.572278168291746)"><path d="M31.29 0 C73.21 -0.62, 115.52 0.2, 164.12 0 M31.29 0 C63.82 0.01, 97.43 -0.96, 164.12 0 M164.12 0 C185.47 1.59, 193.45 10.52, 195.4 31.29 M164.12 0 C185.56 2.06, 194.55 9.32, 195.4 31.29 M195.4 31.29 C195.94 54.18, 196.14 75.6, 195.4 93.86 M195.4 31.29 C194.85 54.64, 195.86 77.73, 195.4 93.86 M195.4 93.86 C194.23 114.47, 186.83 125.59, 164.12 125.14 M195.4 93.86 C196.39 112.53, 183.28 124.36, 164.12 125.14 M164.12 125.14 C133.61 125.91, 100.07 124.11, 31.29 125.14 M164.12 125.14 C129.78 127.02, 95.72 127.22, 31.29 125.14 M31.29 125.14 C10.16 124.14, 1.69 116.18, 0 93.86 M31.29 125.14 C8.45 123.13, 0.16 114.2, 0 93.86 M0 93.86 C0.06 73.12, 0.97 48.58, 0 31.29 M0 93.86 C0.95 81.17, 0.08 67.56, 0 31.29 M0 31.29 C0.5 9.06, 11.28 1.49, 31.29 0 M0 31.29 C1.14 8.95, 10.56 1.74, 31.29 0" stroke="#1e1e1e" stroke-width="1" fill="none"></path></g><g transform="translate(23.358907508530933 255.47342753593938) rotate(0 84.34166717529291 12.5)"><text x="84.34166717529297" y="0" font-family="Virgil, Segoe UI Emoji" font-size="20px" fill="#1e1e1e" text-anchor="middle" style="white-space: pre;" direction="ltr" dominant-baseline="text-before-edge">PagamentoDebito</text></g><g stroke-linecap="round" transform="translate(417.2686877269525 108.7983339499342) rotate(0 136.6710286307424 59.279000369960556)"><path d="M29.64 0 C98.48 -0.62, 170.68 -2.2, 243.7 0 M29.64 0 C107.01 -0.96, 183.35 -1.46, 243.7 0 M243.7 0 C265.05 0.98, 274.78 9.08, 273.34 29.64 M243.7 0 C263.1 -1.55, 271.53 10.34, 273.34 29.64 M273.34 29.64 C271.07 49.69, 273.1 70.43, 273.34 88.92 M273.34 29.64 C274.31 46.97, 274.34 63.87, 273.34 88.92 M273.34 88.92 C272.47 109.3, 264.03 119.92, 243.7 118.56 M273.34 88.92 C274.98 106.9, 261.2 116.45, 243.7 118.56 M243.7 118.56 C177.54 118.07, 114.82 117.99, 29.64 118.56 M243.7 118.56 C199.27 119.3, 156.43 120.29, 29.64 118.56 M29.64 118.56 C11.77 117.82, 0.25 108.51, 0 88.92 M29.64 118.56 C8.3 118.66, 1.12 108.85, 0 88.92 M0 88.92 C1.5 68.96, -2.14 50.2, 0 29.64 M0 88.92 C-0.51 74.62, 0.15 58.94, 0 29.64 M0 29.64 C-1.58 8.88, 9.95 1.58, 29.64 0 M0 29.64 C1.19 7.96, 7.89 -0.25, 29.64 0" stroke="#1e1e1e" stroke-width="1" fill="none"></path></g><g transform="translate(441.3313865847456 155.57733431989476) rotate(0 112.60832977294922 12.5)"><text x="112.60832977294922" y="0" font-family="Virgil, Segoe UI Emoji" font-size="20px" fill="#1e1e1e" text-anchor="middle" style="white-space: pre;" direction="ltr" dominant-baseline="text-before-edge">ProcessadorPagamento</text></g><g stroke-linecap="round"><g transform="translate(405.19333579973795 151.61094532823915) rotate(0 -94.95617651854786 -37.32381504775299)"><path d="M-0.07 0.38 C-31.79 -12.16, -157.95 -61.44, -189.41 -74.07 M-1.57 -0.46 C-33.49 -12.85, -158.86 -63.56, -190.09 -75.9" stroke="#1e1e1e" stroke-width="1" fill="none"></path></g><g transform="translate(405.19333579973795 151.61094532823915) rotate(0 -94.95617651854786 -37.32381504775299)"><path d="M-165.1 -75.11 C-173.92 -74.57, -183.05 -73.83, -190.09 -75.9 M-165.1 -75.11 C-170.53 -76.07, -175.96 -74.73, -190.09 -75.9" stroke="#1e1e1e" stroke-width="1" fill="none"></path></g><g transform="translate(405.19333579973795 151.61094532823915) rotate(0 -94.95617651854786 -37.32381504775299)"><path d="M-171.45 -59.23 C-178.03 -64.7, -184.76 -69.96, -190.09 -75.9 M-171.45 -59.23 C-175.27 -63.94, -179.2 -66.36, -190.09 -75.9" stroke="#1e1e1e" stroke-width="1" fill="none"></path></g></g><mask></mask><g stroke-linecap="round"><g transform="translate(404.09557653362776 163.68629725545333) rotate(0 -95.50505615160341 45.03176375998342)"><path d="M0.76 0.12 C-4 2.18, 3.91 -2.04, -28 12.82 C-59.91 27.67, -163.52 76.19, -190.72 89.25 M-0.3 -0.87 C-5.32 0.82, 2.6 -4.09, -29.24 11.08 C-61.08 26.25, -164.36 77.13, -191.33 90.14" stroke="#1e1e1e" stroke-width="1" fill="none"></path></g><g transform="translate(404.09557653362776 163.68629725545333) rotate(0 -95.50505615160341 45.03176375998342)"><path d="M-173.97 72.16 C-179.76 77.61, -184.77 85.29, -191.33 90.14 M-173.97 72.16 C-177.71 76.11, -182.84 79.96, -191.33 90.14" stroke="#1e1e1e" stroke-width="1" fill="none"></path></g><g transform="translate(404.09557653362776 163.68629725545333) rotate(0 -95.50505615160341 45.03176375998342)"><path d="M-166.47 87.53 C-174.93 87.67, -182.55 90, -191.33 90.14 M-166.47 87.53 C-171.94 87.98, -178.8 88.26, -191.33 90.14" stroke="#1e1e1e" stroke-width="1" fill="none"></path></g></g><mask></mask><g transform="translate(269.07118680205053 85.74538936161633) rotate(22.289692575229815 53.54166793823242 12.5)"><text x="0" y="0" font-family="Virgil, Segoe UI Emoji" font-size="20px" fill="#1e1e1e" text-anchor="start" style="white-space: pre;" direction="ltr" dominant-baseline="text-before-edge">depende de</text></g><g transform="translate(240.77798198435698 178.63027890821286) rotate(335.22485943116817 53.54166793823242 12.5)"><text x="0" y="0" font-family="Virgil, Segoe UI Emoji" font-size="20px" fill="#1e1e1e" text-anchor="start" style="white-space: pre;" direction="ltr" dominant-baseline="text-before-edge">depende de</text></g></svg>