<svg version="1.1" xmlns="http://www.w3.org/2000/svg" viewBox="0 0 718.5701883096574 375.82294334456805" width="718.5701883096574" height="375.82294334456805" filter="invert(93%) hue-rotate(180deg)">
  <!-- svg-source:excalidraw -->
  
  <defs>
    <style class="style-fonts">
      @font-face {
        font-family: "Virgil";
        src: url("https://excalidraw.com/Virgil.woff2");
      }
      @font-face {
        font-family: "Cascadia";
        src: url("https://excalidraw.com/Cascadia.woff2");
      }
      @font-face {
        font-family: "Assistant";
        src: url("https://excalidraw.com/Assistant-Regular.woff2");
      }
    </style>
    
  </defs>
  <rect x="0" y="0" width="718.5701883096574" height="375.82294334456805" fill="#ffffff"></rect><g stroke-linecap="round" transform="translate(435.2281310481726 116.00320468658117) rotate(0 136.6710286307424 59.279000369960556)"><path d="M29.64 0 C84.93 -2.04, 136.22 -0.03, 243.7 0 M29.64 0 C101.4 2.27, 171.87 1.6, 243.7 0 M243.7 0 C264.35 -0.23, 272.31 8.38, 273.34 29.64 M243.7 0 C262.16 -1.21, 274.37 9.76, 273.34 29.64 M273.34 29.64 C273.69 49.08, 275.48 66.5, 273.34 88.92 M273.34 29.64 C273.71 53.48, 272.26 75.88, 273.34 88.92 M273.34 88.92 C274.49 108.68, 264.69 119.23, 243.7 118.56 M273.34 88.92 C271.79 110.62, 263.06 119.91, 243.7 118.56 M243.7 118.56 C191.31 117.26, 137.18 118.07, 29.64 118.56 M243.7 118.56 C192.43 118.67, 140.07 117.82, 29.64 118.56 M29.64 118.56 C10.32 118.61, -0.39 107.34, 0 88.92 M29.64 118.56 C11.65 120.22, 1.97 108.15, 0 88.92 M0 88.92 C0.02 69.02, -1.11 51.08, 0 29.64 M0 88.92 C1 65.28, 0.52 41.93, 0 29.64 M0 29.64 C1.65 10.06, 7.93 0.71, 29.64 0 M0 29.64 C-1.19 8.72, 8.09 -1.27, 29.64 0" stroke="#1e1e1e" stroke-width="1" fill="none"></path></g><g transform="translate(459.2908299059658 162.78220505654173) rotate(0 112.60832977294922 12.5)"><text x="112.60832977294922" y="0" font-family="Virgil, Segoe UI Emoji" font-size="20px" fill="#1e1e1e" text-anchor="middle" style="white-space: pre;" direction="ltr" dominant-baseline="text-before-edge">ProcessadorPagamento</text></g><g stroke-linecap="round" transform="translate(14.219726591609515 10) rotate(0 97.70057468382387 62.57227816829172)"><path d="M31.29 0 C75.67 0.13, 120.79 1, 164.12 0 M31.29 0 C76.31 -0.44, 122.29 -2.02, 164.12 0 M164.12 0 C185.31 -1.51, 195.87 11.24, 195.4 31.29 M164.12 0 C186.39 1.27, 193.25 11.58, 195.4 31.29 M195.4 31.29 C194.79 52.77, 194.23 76.14, 195.4 93.86 M195.4 31.29 C194.76 55.18, 194.98 81.6, 195.4 93.86 M195.4 93.86 C196.33 114.74, 184.57 123.34, 164.12 125.14 M195.4 93.86 C195.9 114, 186.44 122.97, 164.12 125.14 M164.12 125.14 C129.61 126.66, 93.15 126.46, 31.29 125.14 M164.12 125.14 C130.78 124.79, 98.85 126.35, 31.29 125.14 M31.29 125.14 C9.16 127.06, 0.91 116.16, 0 93.86 M31.29 125.14 C11.56 126.59, 0.94 112.5, 0 93.86 M0 93.86 C-0.99 71.65, 0.67 52.11, 0 31.29 M0 93.86 C-0.37 77.97, 0.48 59.79, 0 31.29 M0 31.29 C-0.31 11.37, 11.75 -0.16, 31.29 0 M0 31.29 C-0.77 11.51, 9.64 -1.79, 31.29 0" stroke="#1e1e1e" stroke-width="1" fill="none"></path></g><g transform="translate(24.028631048382636 60.07227816829172) rotate(0 87.89167022705078 12.5)"><text x="87.89167022705078" y="0" font-family="Virgil, Segoe UI Emoji" font-size="20px" fill="#1e1e1e" text-anchor="middle" style="white-space: pre;" direction="ltr" dominant-baseline="text-before-edge">PagamentoCredito</text></g><g stroke-linecap="round" transform="translate(10 240.6783870079846) rotate(0 97.70057468382387 62.57227816829172)"><path d="M31.29 0 C73.63 0.11, 114.5 -0.38, 164.12 0 M31.29 0 C59.6 -0.43, 86.36 -0.47, 164.12 0 M164.12 0 C185.52 -1.2, 195.12 10.05, 195.4 31.29 M164.12 0 C183.88 -0.49, 193.37 10.65, 195.4 31.29 M195.4 31.29 C193.43 50.8, 194.92 72.62, 195.4 93.86 M195.4 31.29 C194.99 46.51, 195.46 63.72, 195.4 93.86 M195.4 93.86 C195.24 116.43, 185.31 126.43, 164.12 125.14 M195.4 93.86 C194.26 115.39, 183.06 125.81, 164.12 125.14 M164.12 125.14 C127.21 128.03, 89.94 127.64, 31.29 125.14 M164.12 125.14 C123.08 125.75, 83.51 126.13, 31.29 125.14 M31.29 125.14 C12.37 123.83, 0.14 115.16, 0 93.86 M31.29 125.14 C9.9 126.23, 1.26 114.57, 0 93.86 M0 93.86 C-2.12 71.5, -1.06 47.88, 0 31.29 M0 93.86 C-1.1 76.81, -0.73 59.53, 0 31.29 M0 31.29 C-1.03 8.47, 9.6 0.01, 31.29 0 M0 31.29 C-0.94 11.03, 10.53 -0.71, 31.29 0" stroke="#1e1e1e" stroke-width="1" fill="none"></path></g><g transform="translate(23.358907508530933 290.75066517627636) rotate(0 84.34166717529297 12.5)"><text x="84.34166717529297" y="0" font-family="Virgil, Segoe UI Emoji" font-size="20px" fill="#1e1e1e" text-anchor="middle" style="white-space: pre;" direction="ltr" dominant-baseline="text-before-edge">PagamentoDebito</text></g><g stroke-linecap="round"><g transform="translate(418.5537669323888 175.2522918974555) rotate(0 -101.97672596389572 -45.71370474243605)"><path d="M-0.33 -0.58 C-34.65 -15.67, -171.24 -76.57, -205.12 -91.72 M1.7 1.73 C-32.34 -13.08, -168.7 -75.02, -203.02 -90.34" stroke="#1e1e1e" stroke-width="1" fill="none"></path></g><g transform="translate(418.5537669323888 175.2522918974555) rotate(0 -101.97672596389572 -45.71370474243605)"><path d="M-178.09 -88.49 C-188.22 -91.19, -196.92 -89.4, -203.02 -90.34 M-178.09 -88.49 C-184.55 -90.02, -193.11 -90.46, -203.02 -90.34" stroke="#1e1e1e" stroke-width="1" fill="none"></path></g><g transform="translate(418.5537669323888 175.2522918974555) rotate(0 -101.97672596389572 -45.71370474243605)"><path d="M-185.12 -72.9 C-192.51 -81.31, -198.62 -85.27, -203.02 -90.34 M-185.12 -72.9 C-189.4 -78.98, -195.88 -84.01, -203.02 -90.34" stroke="#1e1e1e" stroke-width="1" fill="none"></path></g></g><mask></mask><g stroke-linecap="round"><g transform="translate(421.3669179934618 196.35092485550297) rotate(0 -99.16357490282275 56.263021221459724)"><path d="M0.37 0.47 C-32.57 19.2, -165.46 94.1, -198.51 112.8 M-0.9 -0.33 C-33.93 17.98, -166.62 91.75, -199.55 110.81" stroke="#1e1e1e" stroke-width="1" fill="none"></path></g><g transform="translate(421.3669179934618 196.35092485550297) rotate(0 -99.16357490282275 56.263021221459724)"><path d="M-183.32 91.81 C-186.13 95.84, -190.12 101.08, -199.55 110.81 M-183.32 91.81 C-188.04 98.02, -193.68 104.52, -199.55 110.81" stroke="#1e1e1e" stroke-width="1" fill="none"></path></g><g transform="translate(421.3669179934618 196.35092485550297) rotate(0 -99.16357490282275 56.263021221459724)"><path d="M-174.9 106.69 C-179.66 107.39, -185.55 109.28, -199.55 110.81 M-174.9 106.69 C-182.2 108.28, -190.46 110.16, -199.55 110.81" stroke="#1e1e1e" stroke-width="1" fill="none"></path></g></g><mask></mask><g transform="translate(284.73337476123044 98.46496143423781) rotate(27.985327099258914 55.650001525878906 12.5)"><text x="0" y="0" font-family="Virgil, Segoe UI Emoji" font-size="20px" fill="#1e1e1e" text-anchor="start" style="white-space: pre;" direction="ltr" dominant-baseline="text-before-edge">Depende de</text></g><g transform="translate(235.35760339675562 222.20538779615487) rotate(337.3801350519596 55.650001525878906 12.5)"><text x="0" y="0" font-family="Virgil, Segoe UI Emoji" font-size="20px" fill="#1e1e1e" text-anchor="start" style="white-space: pre;" direction="ltr" dominant-baseline="text-before-edge">Depende de</text></g></svg>